<?xml version="1.0" encoding="UTF-8"?>
<svg id="Layer_1" xmlns="http://www.w3.org/2000/svg" version="1.1" viewBox="0 0 108 128">
  <!-- Generator: Adobe Illustrator 29.1.0, SVG Export Plug-In . SVG Version: 2.1.0 Build 142)  -->
  <defs>
    <style>
      .st0 {
        fill: #fff;
      }
    </style>
  </defs>
  <path class="st0" d="M17.7,50.3h21.4c1,0,1.9-.8,1.9-1.9v-5.5c0-3.7-1.7-7.3-4.7-9.6,4-4.3,3.7-11.2-.7-15.2-4.3-4-11.1-3.7-15.1.7-3.7,4.1-3.7,10.4,0,14.5-3,2.2-4.7,5.7-4.7,9.6v5.5c0,1,.8,1.9,1.9,1.9h0ZM28.4,19.1c3.8,0,6.9,3.1,6.9,7s-3.1,7-6.9,7-6.9-3.1-6.9-7,3.1-7,6.9-7h0ZM19.6,42.9c0-2.9,1.6-5.6,4.1-7.2,3,1.5,6.4,1.5,9.4,0,2.6,1.4,4.1,4.1,4.1,7.2v3.6h-17.7v-3.6h.1Z"/>
  <path class="st0" d="M106.1,0H1.9C.9,0,0,.8,0,1.9v124.2c0,1,.8,1.9,1.9,1.9h104.2c1,0,1.9-.8,1.9-1.9V1.9c0-1-.8-1.9-1.9-1.9h0ZM104.2,124.2H3.8V3.8h100.4s0,120.3,0,120.3Z"/>
  <path class="st0" d="M13.7,65.9h80.6c1,0,1.9-.8,1.9-1.9s-.8-1.9-1.9-1.9H13.7c-1,0-1.9.8-1.9,1.9s.8,1.9,1.9,1.9h0Z"/>
  <path class="st0" d="M13.7,81.5h80.6c1,0,1.9-.8,1.9-1.9s-.8-1.9-1.9-1.9H13.7c-1,0-1.9.8-1.9,1.9s.8,1.9,1.9,1.9h0Z"/>
  <path class="st0" d="M13.7,112.7h80.6c1,0,1.9-.8,1.9-1.9s-.8-1.9-1.9-1.9H13.7c-1,0-1.9.8-1.9,1.9s.8,1.9,1.9,1.9h0Z"/>
  <path class="st0" d="M13.7,97h80.6c1,0,1.9-.8,1.9-1.9s-.8-1.9-1.9-1.9H13.7c-1,0-1.9.8-1.9,1.9s.8,1.9,1.9,1.9h0Z"/>
  <path class="st0" d="M54,19.1h40.3c1,0,1.9-.8,1.9-1.9s-.8-1.9-1.9-1.9h-40.3c-1,0-1.9.8-1.9,1.9s.8,1.9,1.9,1.9Z"/>
  <path class="st0" d="M54,34.7h40.3c1,0,1.9-.8,1.9-1.9s-.8-1.9-1.9-1.9h-40.3c-1,0-1.9.8-1.9,1.9s.8,1.9,1.9,1.9Z"/>
  <path class="st0" d="M54,50.2h40.3c1,0,1.9-.8,1.9-1.9s-.8-1.9-1.9-1.9h-40.3c-1,0-1.9.8-1.9,1.9s.8,1.9,1.9,1.9Z"/>
</svg>