<?xml version="1.0" encoding="UTF-8"?>
<svg id="Layer_1" xmlns="http://www.w3.org/2000/svg" version="1.1" viewBox="0 0 128 128">
  <!-- Generator: Adobe Illustrator 29.1.0, SVG Export Plug-In . SVG Version: 2.1.0 Build 142)  -->
  <defs>
    <style>
      .st0 {
        fill: #fff;
      }
    </style>
  </defs>
  <path class="st0" d="M27.7,50.5h21.4c1,0,1.9-.8,1.9-1.9v-5.5c0-3.7-1.7-7.2-4.7-9.5,4-4.3,3.7-11.1-.7-15.1-4.3-4-11.1-3.7-15.1.7-3.7,4.1-3.7,10.3,0,14.4-3,2.2-4.7,5.7-4.7,9.5v5.5c0,1,.8,1.9,1.9,1.9h0ZM38.4,19.5c3.8,0,6.9,3.1,6.9,6.9s-3.1,6.9-6.9,6.9-6.9-3.1-6.9-6.9c0-3.8,3.1-6.9,6.9-6.9h0ZM29.6,43.1c0-2.9,1.6-5.6,4.1-7.1,3,1.5,6.4,1.5,9.4,0,2.6,1.4,4.1,4.1,4.1,7.1v3.6h-17.7v-3.6Z"/>
  <path class="st0" d="M116.1.6H11.9c-1,0-1.9.8-1.9,1.9v123.1c0,1,.8,1.9,1.9,1.9h104.2c1,0,1.9-.8,1.9-1.9V2.5c0-1-.8-1.9-1.9-1.9,0,0,0,0,0,0ZM114.2,123.7H13.8V4.4h100.4v119.3Z"/>
  <path class="st0" d="M23.7,65.9h80.6c1,0,1.9-.8,1.9-1.9s-.8-1.9-1.9-1.9H23.7c-1,0-1.9.8-1.9,1.9s.8,1.9,1.9,1.9h0Z"/>
  <path class="st0" d="M23.7,81.4h80.6c1,0,1.9-.8,1.9-1.9s-.8-1.9-1.9-1.9H23.7c-1,0-1.9.8-1.9,1.9s.8,1.9,1.9,1.9h0Z"/>
  <path class="st0" d="M23.7,112.3h80.6c1,0,1.9-.8,1.9-1.9s-.8-1.9-1.9-1.9H23.7c-1,0-1.9.8-1.9,1.9s.8,1.9,1.9,1.9h0Z"/>
  <path class="st0" d="M23.7,96.8h80.6c1,0,1.9-.8,1.9-1.9s-.8-1.9-1.9-1.9H23.7c-1,0-1.9.8-1.9,1.9s.8,1.9,1.9,1.9h0Z"/>
  <path class="st0" d="M64,19.5h40.3c1,0,1.9-.8,1.9-1.9s-.8-1.9-1.9-1.9h-40.3c-1,0-1.9.8-1.9,1.9s.8,1.9,1.9,1.9Z"/>
  <path class="st0" d="M64,35h40.3c1,0,1.9-.8,1.9-1.9s-.8-1.9-1.9-1.9h-40.3c-1,0-1.9.8-1.9,1.9s.8,1.9,1.9,1.9Z"/>
  <path class="st0" d="M64,50.4h40.3c1,0,1.9-.8,1.9-1.9s-.8-1.9-1.9-1.9h-40.3c-1,0-1.9.8-1.9,1.9s.8,1.9,1.9,1.9Z"/>
</svg>