<?xml version="1.0" encoding="UTF-8"?>
<svg id="svg1" xmlns="http://www.w3.org/2000/svg" xmlns:svg="http://www.w3.org/2000/svg" xmlns:sodipodi="http://sodipodi.sourceforge.net/DTD/sodipodi-0.dtd" xmlns:rdf="http://www.w3.org/1999/02/22-rdf-syntax-ns#" xmlns:inkscape="http://www.inkscape.org/namespaces/inkscape" xmlns:dc="http://purl.org/dc/elements/1.1/" xmlns:cc="http://creativecommons.org/ns#" version="1.1" viewBox="0 0 576 186.7">
  <!-- Generator: Adobe Illustrator 29.0.1, SVG Export Plug-In . SVG Version: 2.1.0 Build 192)  -->
  <defs>
    <style>
      .st0 {
        fill: #fff;
      }
    </style>
  </defs>
  <sodipodi:namedview id="namedview1" bordercolor="#000000" borderopacity="0.25" inkscape:deskcolor="#d1d1d1" inkscape:pagecheckerboard="0" inkscape:pageopacity="0.0" inkscape:showpageshadow="2" pagecolor="#ffffff"/>
  <path id="path1" class="st0" d="M425.6,99.9c-1.9-4.4-4.2-17.2-.4-24.6,4.5,5.7,9.5,12.9.4,24.6ZM390.7,25.1c-5.4,19.4-6.1,52.9-.6,66.9,15.1-29.3,2.6-61.6.6-66.9ZM352.4,81.4c1.2-29.3,1.2-50.2-5.2-61.9-5.3,15.9-2.7,32.6,5.2,61.9ZM363.9,109.6c9.9,13,15.3,6,16.8,0-12.6-48.3-4.2-73.9,4.4-103.1,0,0,0,0,0,0-.5-.3-24.7,9.5-27.3,10.5,19.5,31.3-3.8,66.9,6.2,92.7ZM481.9,105.3c17.4-13.2,15.9-40.6,18.2-54.9,0,0,0,0,0,0,0,0-27.1,10.4-30.3,11.7,13.9,7.4,18.5,22.4,12.2,43.2ZM327.6,101.6c5.4,12.4,15.2,7.3,19.3,2.1-5.4-11-6.8-15.7-9.6-24.4-9,1.4-15.8,8.5-9.7,22.3h0ZM442.1,110.1c12.5-12.5,19.2-37.9,19.6-51.1,0,0,0,0,0,0,0,0-25.5,9.8-27.9,10.7,10.5,11,8.2,23.9-1.1,39.8,2.7,3.3,7,2.2,9.5.6h0ZM508.2,69.9c1.2,11.6-1.9,22.3-5.3,27.7,10.8,1.2,17.7-16.6,5.3-27.7ZM468,78.5c0,8.6-5.2,20.5-5.2,20.5,10.8,7.3,15.8-6.3,5.2-20.5ZM418.7,108.4c-9.2-16.9-6.1-35,2.1-47.9h0s-11.5,4.3-11.5,4.3c-.9,14.6-5,28.7-12.2,41.5,2.2,6.6,18.7,9.8,21.7,2.2h0ZM496.5,109.5c-12.8,12.1-25.6,12.8-38.9,1.7-7,9.9-16.1,14.1-32.1,8.4-9.3,7.3-27.2,7.5-36.9-1.5-9.8,14.9-25.3,12.9-35.1-2.3-6.4,12.1-18.2,12.6-27.8,4-8.7,10.6-20.5,11.6-27.5,1-3,10.3-16.2,16.4-31.3,8.2-4.7,8.4-19.5,16-36.1,9.1-21.8,20.7-39.4,17.1-39.1-29.9l-8.9-2.3s1.1,29.9.8,33.4c-.4,10.7-8.9,12.6-11.7,13.4-8.1,2.4-15.4-4.2-16.4-9.8-3.8-21.1-7.8-45.1-8.9-45.5-5.5-1.8-10.6,50.4-25.1,62.1-15.8,12.7-26.3,2.9-37.4-4.2l-9.6,10.2c-4-21.5-6.8-42-1.4-61.6-7,1.8-17.3-1.3-18.8-6.3,5-6.9,13.3-6.8,17.8-6.1,2.6-8.4,3.2-18.6,1-29.4,14.5.4,15.5,11.3,15.5,14.3,0,4.5-.7,8.9-2.2,13.1,4.8-2.4,10.4-2.3,15.1.3,2.9,1.5,4.8,4.5,5.1,7.7-6.1,2.9-12.8,4.2-19.5,3.7-10.7,26.8,6.3,45.1,21.3,49.4,7.5-48.8,3.3-105.9,15.3-132.4,0,0,0,0,0,0l-47.9,18.9c-3.5,8.4-5.8,17.3-6.9,26.4-1.3.6-44,16.6-43.8,17.6,1.6,8.5,1.8,17,0,25.3h-.2c-5.9,2.4-12.7,4.2-17.4,8.7-3.8,3.6,5.2,6.9,7.7,7.6,2.2.5,4.5.7,6.7.6,1.1,0,2.1-.2,3.2-.5-.4,1.5-.7,2.9-1.1,4.4-1.2,5.9-1.9,11.8-1.9,17.8-.3,13.3,2,26.5,4.4,39.5l13.3-5.2,2.4-.9c3.4,2.2,6.9,4.2,10.8,5.5,8.4,2.7,17.3-2.3,24.9-5.2,10.6-4.1,21.2-8.2,31.7-12.6,1.4,2.1,3.3,3.9,5.6,5,8.1,4.3,22.6-4.4,29.3-7l5.2-2c1.4,2.3,3.3,4.3,5.6,5.7,2.4,1.3,5.2,1.7,7.9,1.2,1.5-.3,3-.7,4.4-1.2,7.7-2.6,15.2-5.7,22.7-8.7,12,1.7,22.4-3.4,34.4-8l1.2-.5c5.4,1.3,10.5.8,15.6-.6,4.5-1.2,9-3.2,13.8-5.1,6.7,5.7,23.6-2.6,25.9-3.5,8.6,6.4,25.4-1,27.6-2.3,5.8,6.4,13.3,10,22.4,6.9,4.9-1.7,9.8-3.5,14.6-5.4,7.1,3.7,15.6,4.2,23.5,2.1,3.6-.9,7.1-2.1,10.6-3.4,4.2,1.2,8.3,2,12.7,1.8,7.5-.4,15.3-4.6,22.2-7.5,9,7.1,27.8,1.6,38.3-3.1,10.4,4.4,21.8,5.5,32.9,3.4,3.2-.6,39.6-14.2,56.6-21.3-14.1,5.2-30.7,5.2-45.9-3h0ZM127.8,41.6l-4.9,71c7.5-11.7,11-54.7,4.9-71ZM309,115.6c.8,3.1,8.8,2.3,9.8-2.5-9.1-13.1-15.6-42.9,15.6-46.8-4.9-26.2-1.1-45.7,10.3-64.2,0,0,0,0,0,0-.4-.3-47.3,17.9-47.9,18.8-7.1,11.6-11.2,24.8-12,38.4,11.9-.7,17.1,30.4,24.2,56.2h0ZM166,138.9s4.3,6.5,7.7,2.2c3.6-4.5-2.7-46.9-2.8-47.5h0c-2.1.2-5.3,1.9-7.1,2.6l-1.4.5c1.6,3.8,2.6,7.8,3,11.9,1.4,10.9.6,30.2.6,30.2ZM195.8,90.9c9.5,11.7,12.7,24.4,8.1,40.4,5.9,8.4,10.5,7.4,17.4.5-14-9.5-13-44.7,10.4-57.8-.3,0-.6.2-.9.3-5.7,2-37.2,13-46.4,18.3-.2,0-1.2.7-1.8,1.1,2.8.4,5.6,1,8.3,1.9l4.9-4.8ZM277.1,118.8c3.2,1.9,12.9.7,15.3-9.7-4.9-16.1-6-22.1-8.3-32.5-10.7,2-16.4,36.7-7,42.2h0ZM240.4,127.2c4.1,2.5,18.2,3.6,19.9-5.4-4.8-38,11.7-58.6,22.1-62l-.8.2-2.5.9-43.2,15.1c17.9,10.5,18.8,38.2,4.5,51.2ZM231,120.5c14-14.8,8.2-30.8,1.8-31.7-11.4,10.1-9.3,26.5-1.8,31.7ZM537.6,69.1c.3,0,.6,0,.8-.2.2-.2.3-.4.2-.7,0-.3-.1-.5-.3-.6-.3-.1-.6-.2-.9,0h-1.3c0,.1.2,1.8.2,1.8h1.3ZM569.3,55c0,0,0-.1,0-.2l-25.9,9.9c2.8,3.2,2.5,8.1-.7,10.9-3.2,2.8-8.1,2.5-10.9-.7-2.8-3.2-2.5-8.1.7-10.9.8-.7,1.6-1.2,2.6-1.5l-13,4.9c.8,1.5,1.5,3,2.1,4.6,3.3,8.9,3,19.8-2,31.6,34.3-1.6,49.3-26.7,47.3-48.6h0ZM536.9,63.4c3.5-.4,6.7,2.2,7.1,5.8.4,3.5-2.2,6.7-5.8,7.1-3.5.4-6.7-2.2-7.1-5.8-.4-3.6,2.2-6.7,5.8-7.1h0ZM534.7,66.4l.8,7.2h1.3c0-.1-.3-3.1-.3-3.1h.6c.1-.1.3,0,.4,0,.1.1.2.2.3.4l1.8,2.3,1.5-.2-2.3-2.9s0,0,0,0c.2,0,.3-.1.5-.3.6-.4.8-1.2.7-1.9,0-.7-.4-1.3-1.1-1.6-.5-.2-1-.3-1.6-.2l-2.6.3Z" inkscape:export-filename="GIT/assets/threadless.svg" inkscape:export-xdpi="96" inkscape:export-ydpi="96"/>
</svg>