<?xml version="1.0" encoding="UTF-8"?>
<svg id="svg1" xmlns="http://www.w3.org/2000/svg" xmlns:svg="http://www.w3.org/2000/svg" xmlns:sodipodi="http://sodipodi.sourceforge.net/DTD/sodipodi-0.dtd" xmlns:rdf="http://www.w3.org/1999/02/22-rdf-syntax-ns#" xmlns:inkscape="http://www.inkscape.org/namespaces/inkscape" xmlns:dc="http://purl.org/dc/elements/1.1/" xmlns:cc="http://creativecommons.org/ns#" version="1.1" viewBox="0 0 320 104">
  <!-- Generator: Adobe Illustrator 29.1.0, SVG Export Plug-In . SVG Version: 2.1.0 Build 142)  -->
  <defs>
    <style>
      .st0 {
        fill: #fff;
      }
    </style>
  </defs>
  <sodipodi:namedview id="namedview1" bordercolor="#000000" borderopacity="0.25" inkscape:deskcolor="#d1d1d1" inkscape:pagecheckerboard="0" inkscape:pageopacity="0.0" inkscape:showpageshadow="2" pagecolor="#ffffff"/>
  <path id="path1" class="st0" d="M238.1,55.6c-1.1-2.5-2.4-9.8-.2-14,2.6,3.2,5.4,7.3.2,14ZM218.3,13.1c-3.1,11-3.5,30.1-.3,38,8.6-16.7,1.5-35,.3-38ZM196.5,45.1c.7-16.7.7-28.5-3-35.2-3,9-1.5,18.5,3,35.2ZM203.1,61.1c5.6,7.4,8.7,3.4,9.5,0-7.2-27.4-2.4-42,2.5-58.6h0c-.3-.2-14,5.4-15.5,6,11.1,17.8-2.2,38,3.5,52.7h0ZM270.1,58.6c9.9-7.5,9-23.1,10.3-31.2h0s-15.4,5.9-17.2,6.6c7.9,4.2,10.5,12.7,6.9,24.5h0ZM182.4,56.5c3.1,7,8.6,4.1,11,1.2-3.1-6.3-3.9-8.9-5.5-13.9-5.1.8-9,4.8-5.5,12.7h0ZM247.5,61.4c7.1-7.1,10.9-21.5,11.1-29h0s-14.5,5.6-15.9,6.1c6,6.3,4.7,13.6-.6,22.6,1.5,1.9,4,1.3,5.4.3h0ZM285.1,38.5c.7,6.6-1.1,12.7-3,15.7,6.1.7,10.1-9.4,3-15.7ZM262.2,43.4c0,4.9-3,11.6-3,11.6,6.1,4.1,9-3.6,3-11.6ZM234.2,60.4c-5.2-9.6-3.5-19.9,1.2-27.2h0l-6.5,2.4c-.5,8.3-2.8,16.3-6.9,23.6,1.3,3.8,10.6,5.6,12.3,1.3h0ZM278.4,61c-7.3,6.9-14.5,7.3-22.1,1-4,5.6-9.1,8-18.2,4.8-5.3,4.1-15.5,4.3-21-.9-5.6,8.5-14.4,7.3-19.9-1.3-3.6,6.9-10.3,7.2-15.8,2.3-4.9,6-11.6,6.6-15.6.6-1.7,5.9-9.2,9.3-17.8,4.7-2.7,4.8-11.1,9.1-20.5,5.2-12.4,11.8-22.4,9.7-22.2-17l-5.1-1.3s.6,17,.5,19c-.2,6.1-5.1,7.2-6.6,7.6-4.6,1.4-8.8-2.4-9.3-5.6-2.2-12-4.4-25.6-5.1-25.9-3.1-1-6,28.6-14.3,35.3-9,7.2-14.9,1.6-21.3-2.4l-5.5,5.8c-2.3-12.2-3.9-23.9-.8-35-4,1-9.8-.7-10.7-3.6,2.8-3.9,7.6-3.9,10.1-3.5,1.5-4.8,1.8-10.6.6-16.7,8.2.2,8.8,6.4,8.8,8.1,0,2.6-.4,5.1-1.3,7.4,2.7-1.4,5.9-1.3,8.6.2,1.6.9,2.7,2.6,2.9,4.4-3.5,1.6-7.3,2.4-11.1,2.1-6.1,15.2,3.6,25.6,12.1,28.1,4.3-27.7,1.9-60.2,8.7-75.2h0l-27.2,10.7c-2,4.8-3.3,9.8-3.9,15-.7.3-25,9.4-24.9,10,.9,4.8,1,9.7,0,14.4h-.1c-3.4,1.4-7.2,2.4-9.9,4.9-2.2,2,3,3.9,4.4,4.3,1.3.3,2.6.4,3.8.3.6,0,1.2-.1,1.8-.3-.2.9-.4,1.6-.6,2.5-.7,3.4-1.1,6.7-1.1,10.1-.2,7.6,1.1,15.1,2.5,22.4l7.6-3,1.4-.5c1.9,1.3,3.9,2.4,6.1,3.1,4.8,1.5,9.8-1.3,14.2-3,6-2.3,12-4.7,18-7.2.8,1.2,1.9,2.2,3.2,2.8,4.6,2.4,12.8-2.5,16.7-4l3-1.1c.8,1.3,1.9,2.4,3.2,3.2,1.4.7,3,1,4.5.7.9-.2,1.7-.4,2.5-.7,4.4-1.5,8.6-3.2,12.9-4.9,6.8,1,12.7-1.9,19.5-4.5l.7-.3c3.1.7,6,.5,8.9-.3,2.6-.7,5.1-1.8,7.8-2.9,3.8,3.2,13.4-1.5,14.7-2,4.9,3.6,14.4-.6,15.7-1.3,3.3,3.6,7.6,5.7,12.7,3.9,2.8-1,5.6-2,8.3-3.1,4,2.1,8.9,2.4,13.4,1.2,2-.5,4-1.2,6-1.9,2.4.7,4.7,1.1,7.2,1,4.3-.2,8.7-2.6,12.6-4.3,5.1,4,15.8.9,21.8-1.8,5.9,2.5,12.4,3.1,18.7,1.9,1.8-.3,22.5-8.1,32.2-12.1-8,3-17.4,3-26.1-1.7h-.1ZM68.9,22.4l-2.8,40.3c4.3-6.6,6.3-31.1,2.8-40.3ZM171.9,64.5c.5,1.8,5,1.3,5.6-1.4-5.2-7.4-8.9-24.4,8.9-26.6-2.8-14.9-.6-26,5.9-36.5h0c-.2-.2-26.9,10.2-27.2,10.7-4,6.6-6.4,14.1-6.8,21.8,6.8-.4,9.7,17.3,13.8,31.9h0ZM90.6,77.7s2.4,3.7,4.4,1.3c2-2.6-1.5-26.7-1.6-27h0c-1.2.1-3,1.1-4,1.5l-.8.3c.9,2.2,1.5,4.4,1.7,6.8.8,6.2.3,17.2.3,17.2h0ZM107.5,50.5c5.4,6.6,7.2,13.9,4.6,23,3.4,4.8,6,4.2,9.9.3-8-5.4-7.4-25.4,5.9-32.8-.2,0-.3.1-.5.2-3.2,1.1-21.1,7.4-26.4,10.4-.1,0-.7.4-1,.6,1.6.2,3.2.6,4.7,1.1l2.8-2.7h0ZM153.7,66.3c1.8,1.1,7.3.4,8.7-5.5-2.8-9.1-3.4-12.6-4.7-18.5-6.1,1.1-9.3,20.9-4,24h0ZM132.9,71.1c2.3,1.4,10.3,2,11.3-3.1-2.7-21.6,6.6-33.3,12.6-35.2h-.5c0,.1-1.4.6-1.4.6l-24.5,8.6c10.2,6,10.7,21.7,2.6,29.1h0ZM127.5,67.3c8-8.4,4.7-17.5,1-18-6.5,5.7-5.3,15.1-1,18ZM301.8,38.1c.2,0,.3,0,.5-.1s.2-.2.1-.4c0-.2,0-.3-.2-.3-.2,0-.3-.1-.5,0h-.7c0,0,.1,1,.1,1h.7v-.2ZM319.8,30.1h0c0-.1-14.7,5.5-14.7,5.5,1.6,1.8,1.4,4.6-.4,6.2-1.8,1.6-4.6,1.4-6.2-.4-1.6-1.8-1.4-4.6.4-6.2.5-.4.9-.7,1.5-.9l-7.4,2.8c.5.9.9,1.7,1.2,2.6,1.9,5.1,1.7,11.3-1.1,18,19.5-.9,28-15.2,26.9-27.6h-.1ZM301.4,34.8c2-.2,3.8,1.3,4,3.3.2,2-1.3,3.8-3.3,4-2,.2-3.8-1.3-4-3.3-.2-2,1.3-3.8,3.3-4h0ZM300.1,36.5l.5,4.1h.7c0,0-.2-1.8-.2-1.8h.3c0,0,.2,0,.2,0,0,0,.1.1.2.2l1,1.3h.9c0-.1-1.3-1.8-1.3-1.8h0c.1,0,.2,0,.3-.2.3-.2.5-.7.4-1.1,0-.4-.2-.7-.6-.9-.3-.1-.6-.2-.9-.1l-1.5.2h0Z" inkscape:export-filename="GIT/assets/threadless.svg" inkscape:export-xdpi="96" inkscape:export-ydpi="96"/>
</svg>