<?xml version="1.0" encoding="UTF-8"?>
<svg id="Layer_1" xmlns="http://www.w3.org/2000/svg" version="1.1" viewBox="0 0 256 256">
  <!-- Generator: Adobe Illustrator 29.0.1, SVG Export Plug-In . SVG Version: 2.1.0 Build 192)  -->
  <defs>
    <style>
      .st0 {
        fill: #fff;
      }
    </style>
  </defs>
  <path class="st0" d="M203.8,1.4H51.9C24.1,1.4,1.4,24.1,1.4,51.9v151.9c0,27.8,22.7,50.5,50.5,50.5h151.9c27.8,0,50.5-22.7,50.5-50.5V51.9c0-27.8-22.7-50.5-50.5-50.5ZM171.4,206.6h-26.7c-24,0-41.9-12.3-41.9-41.9v-47.3h-21.8v-25.6c24-6.2,34-26.9,35.2-44.8h24.9v40.6h29.1v29.8h-29.1v41.2c0,12.3,6.2,16.6,16.2,16.6h14.1v31.4Z"/>
</svg>