<svg version="1.1" xml:space="preserve" viewBox="0 0 1000 1000" width="1000" height="1000" xmlns="http://www.w3.org/2000/svg" xmlns:svg="http://www.w3.org/2000/svg">
  <path id="shape0"
    d="m 501.66698,26.942104 c 24.91688,22.435372 50.5838,44.42652 69.27332,72.59598 40.93696,38.224746 93.20384,65.100016 125.05248,112.720486 19.67408,22.97474 10.4766,53.99813 17.64832,80.9776 4.50276,29.82996 14.06844,65.63924 -9.49576,90.28137 -10.76916,35.63008 -5.00044,74.55288 -16.94648,110.287 -10.71812,34.96396 -27.96984,75.44596 -64.48016,89.3776 -21.51132,0.90588 -51.99648,-10.74892 -54.3682,-35.59328 0.3944,-12.4128 13.28512,-30.66344 -5.73408,-35.6698 -20.97936,-2.04464 -43.42912,-2.70548 -61.811,-13.70484 -22.30868,7.06984 -44.48756,-3.42384 -66.53272,-4.6196 -19.27812,7.06188 -3.331,34.1628 -21.1786,44.17352 -21.76964,15.21192 -59.72282,15.29868 -72.02511,-12.0974 -30.79429,-55.91636 -16.21866,-122.043 -1.51371,-180.41053 4.99647,-20.0264 -11.34334,-39.11236 -2.07301,-59.05252 10.72422,-34.06637 32.1267,-63.66499 42.22715,-97.96891 26.65648,-36.89568 72.54908,-52.50337 113.53596,-68.00969 30.30956,-9.74171 61.20556,-19.67938 85.80356,-40.783774 21.14428,-12.842668 44.46276,-21.516508 66.72404,-32.163784 17.42884,30.127268 36.01892,59.959648 45.44736,93.777598 27.12132,49.0041 68.52512,90.71539 84.09948,145.84688 11.61172,27.92996 -6.72288,54.5926 -8.2392,82.4678 -4.93592,29.76133 -6.90284,66.77433 -36.929,82.92857 -21.2524,30.55832 -27.79376,69.35868 -50.19756,99.6524 -20.99804,29.94064 -49.915,63.11012 -88.94348,65.07772 -20.73864,-5.78596 -46.12996,-26.29056 -40.70828,-50.65216 4.20908,-11.68412 22.11032,-25.05748 5.56836,-35.6962 -19.3208,-8.42744 -40.4676,-15.99324 -54.55084,-32.13464 -23.40148,-0.1696 -41.25224,-17.00352 -61.84888,-24.95308 -20.51604,0.75904 -13.72696,31.46064 -33.7936,35.46648 -25.4048,7.74044 -61.52755,-3.90472 -64.76175,-33.7618 -12.00845,-62.69556 22.28807,-121.08173 54.30987,-172.04841 10.94028,-17.50228 1.29856,-40.7033 16.27708,-56.80279 20.7264,-29.08507 50.22784,-50.62131 70.43444,-80.12504 36.7532,-26.85252 85.22272,-27.51493 128.99528,-29.5964 31.83644,0.10116 64.2912,0.19744 94.20688,-12.27291 24.07804,-5.68014 48.9356,-6.72367 73.39756,-9.9707 7.26596,34.03854 15.72744,68.15546 14.24408,103.23179 10.65064,54.9866 37.13884,107.45089 34.91396,164.69678 2.41264,30.1512 -23.26384,49.8432 -33.31984,75.88552 -13.89108,26.77944 -27.1994,61.37304 -60.74788,67.45804 -29.65532,22.49536 -47.86648,57.37528 -78.535,79.26316 -29.22252,21.98652 -66.97412,44.59672 -104.70044,34.40764 -17.93588,-11.9116 -35.74716,-39.25836 -23.06456,-60.75288 7.61364,-9.81156 28.77132,-16.9986 16.32652,-32.22844 -15.77092,-13.98532 -33.54476,-27.71568 -41.9508,-47.41892 -22.20368,-7.39296 -33.97884,-28.91892 -51.11084,-42.84408 -19.74652,-5.6178 -22.777,25.67916 -43.0994,23.28784 -26.55324,-0.49028 -57.30955,-22.72672 -51.15908,-52.12236 7.95372,-63.33769 58.61372,-108.26813 104.81788,-146.84501 15.81332,-13.26492 13.81288,-38.30991 33.03336,-48.99281 28.69976,-21.25673 63.41236,-32.62245 91.74716,-54.43801 43.25232,-14.18089 89.55416,0.16728 131.82764,11.71388 30.247,9.93425 61.08356,20.0548 93.3886,17.43928 24.6548,2.03837 48.6182,8.72735 72.88628,13.19837 -3.60812,34.61789 -6.10344,69.67977 -18.35336,102.58097 -6.86244,55.58665 2.1166,113.66833 -17.689,167.42501 -7.02268,29.42104 -37.52764,40.21472 -55.13896,61.875 -21.48652,21.17616 -44.83348,49.96412 -78.62036,45.38424 -35.15528,12.2304 -63.25368,39.77564 -99.18492,51.11508 -34.58644,11.88064 -77.47732,21.71716 -110.20848,0.3688 -13.37656,-16.87116 -21.86712,-48.38328 -3.16264,-64.90668 10.27292,-6.9786 32.616,-7.2758 25.48664,-25.60584 -10.67732,-18.17436 -23.33844,-36.72504 -25.24424,-58.0616 -18.8324,-13.89244 -23.37936,-38.00356 -35.36976,-56.54132 -17.04408,-11.44512 -29.59748,17.38424 -48.18632,8.82916 -25.10244,-8.6708 -47.48168,-39.32404 -32.54856,-65.38004 27.13684,-57.77989 89.20164,-84.85645 145.06532,-107.26737 19.13848,-7.72911 24.97524,-32.16646 46.5562,-36.38705 33.86384,-11.34763 70.38964,-11.43029 104.079,-23.4222 45.51752,-0.12112 85.1194,27.83274 121.75576,51.87748 25.69672,18.79493 51.89672,37.94905 83.4288,45.44441 22.81828,9.55732 43.5418,23.32404 65.24052,35.07552 -14.12908,31.80861 -27.337,64.38329 -49.1544,91.88877 -23.70364,50.74544 -33.11224,108.75912 -68.5602,153.76448 -15.7706,25.81096 -48.11796,26.64984 -71.56072,41.80776 -26.97864,13.50008 -58.07892,33.66436 -88.79692,18.86796 -37.21404,0.76816 -72.44912,18.28232 -110.12584,17.96348 -36.56484,0.61176 -80.39656,-3.28664 -104.92868,-33.70468 -7.50956,-20.17928 -5.84508,-52.77216 17.04976,-62.70696 11.92664,-3.4636 33.26796,3.15748 32.15188,-16.47804 -4.53824,-20.58432 -10.8476,-42.13956 -6.06684,-63.02076 -13.61776,-19.03204 -10.49124,-43.36816 -16.16656,-64.70384 -12.6732,-16.15136 -33.5206,7.38676 -48.5564,-6.4928 -21.1944,-16.00348 -33.00592,-52.07204 -10.75196,-72.23817 43.66364,-46.5662 111.05788,-53.13848 171.1128,-57.18968 20.59016,-1.43664 33.6928,-22.87448 55.52176,-20.21944 35.713,-0.3268 70.47672,10.88104 106.22288,9.88612 43.32716,13.95044 72.35256,52.77384 99.76556,86.96305 18.63112,25.81568 37.6298,52.1286 65.30248,69.00108 18.74712,16.14224 34.20636,35.636 51.20724,53.52208 -23.267,25.88564 -45.89456,52.78456 -75.1438,72.20188 -38.22472,40.93696 -65.1,93.20384 -112.72048,125.05248 -22.97472,19.67408 -53.99812,10.4766 -80.9776,17.64832 -29.83,4.50276 -65.63924,14.06844 -90.2814,-9.4958 -35.63008,-10.76912 -74.55284,-5.0004 -110.28696,-16.94644 -34.964,-10.71816 -75.446,-27.96984 -89.37764,-64.48016 -0.90584,-21.51132 10.74892,-51.99648 35.59328,-54.36824 12.41284,0.3948 30.66352,13.28516 35.6698,-5.73404 2.04464,-20.97936 2.70556,-43.42912 13.70484,-61.811 -7.0698,-22.30868 3.42388,-44.4876 4.6196,-66.53272 -7.06184,-19.27812 -34.1628,-3.331 -44.17352,-21.1786 -15.21184,-21.76964 -15.29892,-59.72285 12.09732,-72.02513 55.91636,-30.79428 122.043,-16.21868 180.41048,-1.51372 20.0264,4.99648 39.1124,-11.34336 59.05256,-2.073 34.06632,10.7242 63.665,32.12672 97.96888,42.22713 36.89572,26.65652 52.5034,72.54912 68.00972,113.536 9.74168,30.30956 19.67936,61.20556 40.78372,85.80356 12.84268,21.14428 21.51656,44.46276 32.1638,66.72404 -30.12724,17.42884 -59.95964,36.01892 -93.7776,45.44736 -49.00404,27.12132 -90.71536,68.52512 -145.84688,84.09944 -27.92996,11.61176 -54.59256,-6.72284 -82.4678,-8.23916 -29.76132,-4.93592 -66.77424,-6.90292 -82.92852,-36.929 -30.55836,-21.2524 -69.35872,-27.79376 -99.65236,-50.19756 -29.94072,-20.99804 -63.1102,-49.915 -65.07776,-88.94348 5.78596,-20.73864 26.29056,-46.12996 50.65216,-40.70828 11.68408,4.20904 25.05744,22.11028 35.6962,5.56828 8.4274,-19.32072 15.9932,-40.46752 32.1346,-54.55076 0.1696,-23.40148 17.00356,-41.25224 24.95312,-61.84888 -0.75908,-20.51604 -31.46068,-13.72696 -35.46652,-33.7936 -7.74044,-25.4048 3.90472,-61.52757 33.7618,-64.76177 62.69556,-12.00844 121.08176,22.28804 172.0484,54.30989 17.50228,10.94028 40.70332,1.29856 56.8028,16.27704 29.08508,20.72644 50.62132,50.22788 80.12504,70.43448 26.85252,36.7532 27.51492,85.22272 29.59644,128.99528 -0.1012,31.83644 -0.1976,64.2912 12.27288,94.20688 5.68016,24.078 6.72364,48.93552 9.97072,73.39752 -34.03856,7.266 -68.15548,15.72744 -103.2318,14.24408 -54.9866,10.65068 -107.45092,37.13888 -164.6968,34.914 -30.15116,2.41264 -49.8432,-23.26384 -75.88552,-33.31984 -26.7794,-13.89108 -61.373,-27.1994 -67.458,-60.74788 C 451.74766,703.9719 416.8677,685.7607 394.97986,655.09214 372.99334,625.8697 350.38314,588.1181 360.57224,550.39178 c 11.91162,-17.93592 39.25834,-35.74716 60.75286,-23.06456 9.81156,7.61356 16.9986,28.77128 32.2284,16.32652 13.98536,-15.77096 27.71572,-33.54476 47.41892,-41.9508 7.39296,-22.20368 28.91892,-33.97884 42.84408,-51.11088 5.61788,-19.74652 -25.6792,-22.77696 -23.2878,-43.09936 0.49024,-26.55324 22.72672,-57.30957 52.12232,-51.15909 63.33772,7.95372 108.26812,58.61369 146.84504,104.81789 13.26488,15.81332 38.30988,13.81288 48.9928,33.03332 21.25672,28.6998 32.62244,63.4124 54.438,91.74716 14.18088,43.25232 -0.1672,89.5542 -11.71388,131.82764 -9.93424,30.247 -20.0548,61.0836 -17.43928,93.38864 -2.03836,24.6548 -8.72736,48.6182 -13.1984,72.88628 -34.61784,-3.60812 -69.67972,-6.10344 -102.58092,-18.35336 -55.58664,-6.86248 -113.66836,2.11656 -167.425,-17.689 -29.42104,-7.02272 -40.2148,-37.52764 -61.875,-55.13896 -21.1762,-21.48652 -49.96416,-44.83348 -45.38428,-78.62036 -12.2304,-35.15532 -39.7756,-63.25368 -51.11507,-99.18492 -11.88051,-34.58644 -21.71734,-77.47732 -0.36884,-110.20848 16.87115,-13.37656 48.38323,-21.86712 64.90663,-3.16264 6.97864,10.27292 7.2758,32.616 25.60588,25.4866 18.17436,-10.67728 36.72504,-23.3384 58.0616,-25.2442 13.89244,-18.8324 38.00356,-23.37936 56.54132,-35.36976 11.44512,-17.04408 -17.38424,-29.59748 -8.82916,-48.18636 8.6708,-25.1024 39.32404,-47.48164 65.38004,-32.54852 57.77988,27.13684 84.8564,89.20164 107.26732,145.06532 7.72912,19.13848 32.16652,24.97524 36.38708,46.5562 11.34764,33.8638 11.43028,70.38964 23.42224,104.07896 0.1212,45.51756 -27.83276,85.11944 -51.87752,121.7558 -18.79496,25.69672 -37.94904,51.89672 -45.4444,83.4288 -9.55736,22.81828 -23.32404,43.5418 -35.07552,65.24052 -31.8086,-14.12908 -64.38328,-27.337 -91.88876,-49.1544 C 505.5375,879.0821 447.52382,869.67354 402.51838,834.22558 376.7075,818.45498 375.86858,786.10762 360.71069,762.66486 347.21062,735.68622 327.04634,704.58594 341.84275,673.86794 341.07454,636.6539 323.5604,601.41882 323.87923,563.7421 c -0.61171,-36.56484 3.28664,-80.39656 33.70471,-104.92868 20.17924,-7.50956 52.77216,-5.84508 62.70692,17.04976 3.46348,11.9266 -3.15764,33.26792 16.47792,32.15188 20.58436,-4.53824 42.13956,-10.8476 63.0208,-6.06684 19.032,-13.61776 43.36812,-10.49124 64.7038,-16.16656 16.15124,-12.67316 -7.38624,-33.52068 6.4932,-48.55644 16.00348,-21.19436 52.07204,-33.00592 72.2382,-10.75192 46.56616,43.66364 53.1384,111.05788 57.18968,171.1128 1.43672,20.59016 22.87432,33.69284 20.21956,55.52176 0.3272,35.713 -10.88116,70.47668 -9.88604,106.22288 -13.9504,43.32716 -52.7738,72.35256 -86.963,99.76556 -25.81572,18.63112 -52.1286,37.6298 -69.00108,65.30248 -16.14236,18.74708 -35.636,34.2066 -53.5224,51.20724 -25.8856,-23.267 -52.78452,-45.89456 -72.20184,-75.1438 -40.93696,-38.22476 -93.20385,-65.1 -125.05246,-112.72052 -19.67408,-22.97468 -10.47662,-53.99808 -17.64833,-80.97756 -4.50269,-29.83 -14.06865,-65.63924 9.49564,-90.2814 10.76917,-35.63008 5.00043,-74.55284 16.94646,-110.28696 10.71815,-34.96404 27.96983,-75.44596 64.48013,-89.37764 21.51168,-0.90592 51.996,10.74904 54.3686,35.59324 -0.3948,12.41288 -13.285,30.66356 5.73408,35.66984 20.97936,2.04464 43.42912,2.70552 61.81108,13.70484 22.30864,-7.0698 44.48752,3.42388 66.53264,4.6196 19.278,-7.06192 3.33112,-34.1628 21.17876,-44.17352 21.7696,-15.21184 59.72284,-15.29892 72.02508,12.09732 30.79428,55.91636 16.21868,122.043 1.51372,180.41048 -4.99644,20.0264 11.34336,39.11236 2.07304,59.05256 -10.72424,34.06632 -32.12672,63.66492 -42.22716,97.96888 -26.65648,36.89564 -72.54912,52.5034 -113.53596,68.00972 -30.3096,9.74168 -61.2056,19.67936 -85.80356,40.78372 -21.14432,12.84268 -44.46276,21.51652 -66.72407,32.1638 -17.42882,-30.12724 -36.01889,-59.95964 -45.44735,-93.7776 -27.12129,-49.00412 -68.52511,-90.7154 -84.09944,-145.84688 -11.61175,-27.92996 6.72285,-54.59256 8.23916,-82.4678 4.93592,-29.76136 6.90288,-66.77424 36.929,-82.92852 21.25239,-30.55836 27.79378,-69.35872 50.1976,-99.6524 20.99803,-29.94068 49.91497,-63.11016 88.94346,-65.07776 20.73856,5.78596 46.13,26.29056 40.70816,50.6522 -4.20912,11.68408 -22.11036,25.05744 -5.56836,35.6962 19.32076,8.4274 40.46756,15.9932 54.5508,32.1346 23.40152,0.1696 41.25224,17.00352 61.84892,24.95312 20.51604,-0.75908 13.72692,-31.46068 33.7936,-35.46652 25.4048,-7.74044 61.52752,3.90472 64.76176,33.7618 12.00844,62.69556 -22.28812,121.08172 -54.30988,172.0484 -10.94028,17.50228 -1.2984,40.70332 -16.27696,56.8028 -20.72644,29.08508 -50.22788,50.62132 -70.43444,80.12504 -36.7532,26.85252 -85.22272,27.51492 -128.99532,29.59636 -31.83643,-0.1012 -64.29117,-0.1976 -94.20685,12.27296 -24.07803,5.68016 -48.93556,6.72364 -73.39753,9.97072 -7.26598,-34.03856 -15.72744,-68.15548 -14.24409,-103.2318 -10.65061,-54.9866 -37.13901,-107.45088 -34.91389,-164.6968 -2.4126,-30.15116 23.26385,-49.8432 33.31988,-75.88552 13.89108,-26.7794 27.19941,-61.373 60.74788,-67.458 29.65528,-22.4954 47.86648,-57.37532 78.53503,-79.26316 29.22249,-21.98656 66.97405,-44.59673 104.70041,-34.40765 17.93588,11.91165 35.74712,39.25833 23.06456,60.75285 -7.61364,9.81164 -28.77128,16.99864 -16.32652,32.22844 15.77096,13.98536 33.54472,27.71572 41.9508,47.41892 22.20368,7.39296 33.9788,28.91892 51.11084,42.84408 19.74652,5.61784 22.777,-25.6792 43.0994,-23.2878 26.55324,0.49024 57.30952,22.72672 51.15908,52.12232 -7.95372,63.33772 -58.61372,108.26812 -104.81788,146.84504 -15.81332,13.26488 -13.81288,38.30988 -33.03332,48.99276 -28.69984,21.25676 -63.41244,32.62248 -91.7472,54.43804 -43.25229,14.18088 -89.55415,-0.1672 -131.82763,-11.71388 -30.24699,-9.93428 -61.08357,-20.0548 -93.38861,-17.43928 -24.65482,-2.03836 -48.6182,-8.72736 -72.88631,-13.1984 3.60815,-34.61784 6.1035,-69.67972 18.3534,-102.58092 6.86243,-55.58664 -2.11659,-113.66836 17.68897,-167.42504 7.0227,-29.421 37.52763,-40.21476 55.13898,-61.87496 21.48651,-21.1762 44.83349,-49.96416 78.62036,-45.38428 35.15529,-12.23044 63.25368,-39.77561 99.18488,-51.11509 34.58644,-11.88048 77.47736,-21.71732 110.20852,-0.3692 13.37656,16.87116 21.86712,48.38329 3.16264,64.90661 -10.27292,6.97868 -32.616,7.2758 -25.4866,25.60592 10.67728,18.17436 23.3384,36.72504 25.2442,58.06156 18.8324,13.89248 23.37936,38.0036 35.36972,56.54128 17.04412,11.4452 29.59752,-17.38416 48.18636,-8.82908 25.10244,8.6708 47.48168,39.324 32.54856,65.38004 -27.13684,57.77984 -89.20168,84.8564 -145.06532,107.26732 -19.13848,7.72912 -24.97524,32.16648 -46.55624,36.38708 -33.8638,11.34764 -70.38963,11.43028 -104.07896,23.42216 -45.51754,0.1212 -85.1194,-27.83268 -121.75577,-51.87744 -25.69673,-18.79496 -51.89669,-37.94908 -83.42882,-45.4444 -22.818253,-9.55736 -43.541773,-23.32404 -65.240489,-35.07552 14.129072,-31.8086 27.337,-64.38328 49.154388,-91.88876 23.703661,-50.74552 33.112231,-108.7592 68.560201,-153.76456 15.77059,-25.81088 48.11794,-26.64976 71.56073,-41.80769 26.97866,-13.50008 58.07892,-33.66436 88.7969,-18.86796 37.21406,-0.76824 72.44914,-18.28236 110.12586,-17.96352 36.56484,-0.61172 80.39652,3.2866 104.92864,33.70472 7.50956,20.17929 5.84492,52.77217 -17.04984,62.70689 -11.92664,3.46356 -33.26792,-3.1576 -32.15192,16.47796 4.53824,20.58436 10.8476,42.13956 6.06684,63.0208 13.6178,19.032 10.49128,43.36812 16.16656,64.7038 12.67316,16.15124 33.52068,-7.38624 48.55644,6.4932 21.1944,16.00348 33.00592,52.07204 10.75196,72.23816 -43.66368,46.5662 -111.05792,53.13844 -171.1128,57.18972 -20.5902,1.43672 -33.69284,22.87432 -55.52177,20.21956 -35.71301,0.3272 -70.47671,-10.8812 -106.22286,-9.88604 -43.32721,-13.9504 -72.35259,-52.77388 -99.76561,-86.963 C 122.27312,597.9691 103.27445,571.65614 75.601801,554.7837 56.854529,538.64142 41.395297,519.14742 24.394181,501.26134 47.661117,475.37574 70.288741,448.47682 99.537965,429.0595 137.76271,388.12254 164.63798,335.85565 212.25845,304.00701 c 22.97474,-19.67408 53.99813,-10.4766 80.97759,-17.64832 29.82997,-4.50268 65.63923,-14.06865 90.28138,9.49564 35.63008,10.76916 74.55284,5.00044 110.28696,16.94648 34.96404,10.71812 75.446,27.9698 89.37764,64.48017 0.90592,21.51168 -10.74904,51.996 -35.59324,54.3686 -12.41288,-0.3948 -30.66356,-13.28504 -35.66984,5.73408 -2.04464,20.97932 -2.70552,43.42908 -13.70484,61.81096 7.0698,22.30872 -3.4238,44.4876 -4.61956,66.53272 7.06188,19.278 34.16276,3.33112 44.17352,21.17876 15.21184,21.7696 15.29864,59.72284 -12.09748,72.02508 -55.91632,30.79428 -122.04304,16.21868 -180.4105,1.51372 -20.02638,-4.99644 -39.11235,11.34332 -59.05251,2.07304 -34.06637,-10.72424 -63.66498,-32.12672 -97.96891,-42.22716 -36.89568,-26.65652 -52.50337,-72.54912 -68.00968,-113.53596 -9.74172,-30.3096 -19.67939,-61.2056 -40.783783,-85.80356 -12.842668,-21.14428 -21.516508,-44.46276 -32.16378,-66.72409 30.127264,-17.42884 59.959653,-36.01888 93.777593,-45.44736 49.0041,-27.12128 90.71539,-68.5251 145.84688,-84.09943 27.92996,-11.61176 54.5926,6.72285 82.46781,8.23916 29.76132,4.93592 66.77424,6.90288 82.92852,36.929 30.55836,21.25239 69.35876,27.79379 99.6524,50.19759 29.94068,20.99804 63.11012,49.915 65.07772,88.94349 -5.78596,20.7386 -26.29056,46.13 -50.65212,40.70812 -11.68408,-4.20908 -25.05752,-22.11028 -35.69624,-5.56832 -8.42736,19.32076 -15.9932,40.46756 -32.13464,54.5508 -0.1696,23.40152 -17.00348,41.25224 -24.95308,61.84888 0.75904,20.51608 31.46064,13.72696 35.46652,33.79364 7.74044,25.4048 -3.90476,61.52752 -33.76184,64.76176 -62.69556,12.00844 -121.08169,-22.28812 -172.04836,-54.30996 -17.50229,-10.9402 -40.70331,-1.29832 -56.8028,-16.27688 -29.08507,-20.72644 -50.62131,-50.22788 -80.12504,-70.43444 -26.85252,-36.7532 -27.51493,-85.22272 -29.5964,-128.99532 0.10116,-31.83645 0.19744,-64.29117 -12.27291,-94.20689 -5.68014,-24.07801 -6.72367,-48.93554 -9.9707,-73.39751 34.03854,-7.26598 68.15546,-15.72744 103.23179,-14.2441 54.98661,-10.6506 107.45087,-37.13901 164.69678,-34.91388 30.15116,-2.41261 49.84316,23.26385 75.88552,33.31987 26.7794,13.89109 61.373,27.19942 67.45804,60.74788 22.49536,29.6553 57.37532,47.8665 79.26312,78.53502 21.98652,29.22253 44.59676,66.97413 34.40764,104.70045 -11.9116,17.93588 -39.25832,35.74712 -60.75288,23.06456 -9.81156,-7.61364 -16.99856,-28.77128 -32.22844,-16.32652 -13.98528,15.77096 -27.71564,33.54472 -47.41892,41.95072 -7.39296,22.20376 -28.91892,33.97888 -42.84408,51.11092 -5.6178,19.74652 25.67924,22.77696 23.28788,43.0994 -0.49032,26.55324 -22.72672,57.30952 -52.1224,51.15908 C 364.0111,635.71318 319.0807,585.05318 280.50381,538.84898 267.2389,523.0357 242.1939,525.03614 231.51101,505.81562 c -21.25674,-28.69976 -32.62246,-63.41236 -54.43802,-91.74708 -14.18089,-43.25237 0.16728,-89.55421 11.71388,-131.82769 9.93426,-30.24699 20.0548,-61.08357 17.43928,-93.38861 2.03837,-24.65482 8.72735,-48.6182 13.19837,-72.88632 34.61789,3.60815 69.67976,6.1035 102.58096,18.35341 55.58662,6.86242 113.66834,-2.11659 167.42502,17.68896 29.42104,7.02271 40.21472,37.52763 61.875,55.13899 21.17612,21.48651 49.96412,44.83348 45.38424,78.62037 12.2304,35.15528 39.77564,63.25364 51.11508,99.18489 11.8806,34.58648 21.71716,77.47736 0.3684,110.20848 -16.87112,13.3766 -48.38324,21.86716 -64.90664,3.16268 -6.9786,-10.27292 -7.2758,-32.616 -25.60588,-25.4866 -18.17432,10.67728 -36.725,23.3384 -58.0616,25.2442 -13.8924,18.8324 -38.00352,23.37936 -56.54128,35.36972 -11.44516,17.04412 17.3842,29.59752 8.82912,48.18636 -8.67076,25.1024 -39.32404,47.48164 -65.38,32.54856 -57.77988,-27.13684 -84.85644,-89.20168 -107.26736,-145.0654 -7.72912,-19.13844 -32.16647,-24.97516 -36.38706,-46.55612 -11.34763,-33.86384 -11.43029,-70.38969 -23.4222,-104.07901 -0.12112,-45.51755 27.83274,-85.11942 51.87748,-121.75579 18.79493,-25.69673 37.94905,-51.89668 45.44441,-83.42882 9.55734,-22.818248 23.32405,-43.541772 35.07551,-65.240484 31.80858,14.129072 64.38326,27.337004 91.88874,49.154392 50.74548,23.703662 108.75916,33.112232 153.76452,68.560202 25.81092,15.77059 26.64984,48.11794 41.80776,71.56073 13.50008,26.97865 33.66432,58.07893 18.86792,88.79689 0.7682,37.21408 18.28236,72.44917 17.96352,110.12589 0.61172,36.56484 -3.28664,80.39652 -33.70468,104.92864 -20.17928,7.50956 -52.7722,5.84492 -62.70696,-17.04984 -3.46364,-11.92664 3.15752,-33.268 -16.47804,-32.15192 -20.58432,4.53824 -42.13956,10.8476 -63.0208,6.06684 -19.032,13.6178 -43.36812,10.49128 -64.7038,16.16656 -16.15144,12.67324 7.38676,33.52064 -6.49288,48.55644 -16.00348,21.1944 -52.072,33.00592 -72.23812,10.75192 -46.56618,-43.66364 -53.13845,-111.05788 -57.18966,-171.11276 -1.43664,-20.5902 -22.87448,-33.69285 -20.21943,-55.52181 -0.32696,-35.713 10.88103,-70.47669 9.88613,-106.22285 13.95043,-43.3272 52.77384,-72.35258 86.96296,-99.7656 25.81576,-18.6311 52.12864,-37.62978 69.00112,-65.302424 16.1422,-18.7473 35.63636,-34.206264 53.52212,-51.207624 25.8856,23.26694 52.78452,45.894564 72.20184,75.143788 20.16504,20.84039 45.72728,35.49223 67.8632,54.06338"
  />
  <path id="shape1"
    d="m 975.45401,514.40034 c -4.2518,101.96648 -79.14004,202.81128 -183.09192,218.6224 -52.35024,8.80324 -119.31588,-11.94592 -135.34184,-67.82112 -11.40464,-35.16204 21.4566,-71.82088 57.47044,-66.81648 61.48836,6.40824 96.9772,71.417 98.77016,128.17856 5.26128,110.67076 -84.14504,209.43296 -189.45468,232.54976 -104.81052,26.9572 -229.79232,-21.18116 -274.9226,-122.82392 -21.62076,-47.17788 -23.16749,-114.02672 21.0865,-148.78912 16.05158,-14.88764 51.37034,-10.65716 49.71322,16.23872 -5.66396,40.33148 -63.07682,49.26328 -89.57196,23.29952 -36.77059,-35.07168 -29.36017,-90.94652 -30.80255,-137.0696 1.95183,-74.6826 -9.55183,-150.80848 -45.27592,-217.2664 -18.51082,-42.38834 -54.07244,-82.93311 -47.08421,-131.97888 13.72408,-53.50423 71.64344,-81.11619 122.46014,-87.52538 61.80082,-8.23244 136.76938,19.10966 157.84886,82.40134 11.17724,27.76535 -6.286,69.27372 -40.292,64.96117 -43.68348,-7.62006 -57.7256,-60.88365 -49.90028,-98.91406 16.8006,-89.85656 108.3834,-148.162551 195.7006,-150.945359 119.65,-7.755216 238.83768,80.762889 259.87532,199.946499 14.15824,69.78599 -11.32896,155.79947 -80.51056,186.36251 -33.5776,17.05596 -86.1996,3.58848 -91.83644,-38.07068 -5.61232,-47.94306 45.08684,-80.36924 88.00972,-81.9576 91.78412,-5.56938 170.7244,69.97416 193.74736,154.79756 34.8094,113.40664 -23.04636,248.9322 -133.63604,295.57936 -62.16052,28.03692 -148.60856,22.89128 -191.18196,-36.10908 -22.67924,-28.15592 -18.90816,-79.53108 18.7246,-92.64816 46.35648,-15.64628 89.9206,26.74928 102.00232,68.76576 27.98804,88.48872 -25.36648,184.6148 -101.92088,229.58864 -103.58452,65.0952 -251.9112,44.36572 -331.7206,-49.04128 C 271.07934,828.86178 248.14653,732.92138 294.49491,663.3655 304.49549,646.49694 322.01199,636.62874 337.2283,625.90702 326.56583,605.65986 312.56767,585.86618 304.87897,563.6287 274.84904,487.8435 243.98874,403.7215 170.9823,358.83512 145.62147,340.11382 112.30802,332.24911 90.988819,308.43641 77.465207,281.4375 99.813887,252.99435 113.01243,230.42801 178.16775,133.47117 300.29776,68.230931 417.91989,94.022587 c 66.19396,13.743653 133.6384,64.759733 137.73516,136.801253 3.3504,33.39075 -24.427,73.73093 -61.30116,63.60026 -43.04868,-14.00969 -49.6202,-70.03236 -34.44716,-106.91168 31.75732,-83.19824 129.5552,-122.907409 213.71432,-110.927233 119.45396,13.218572 220.93612,122.348093 219.7678,243.516433 1.17784,71.56088 -40.009,151.86144 -114.05636,169.08788 -36.23424,10.51484 -85.5526,-12.53676 -83.3168,-54.60976 3.43732,-48.16332 59.34784,-70.57216 101.82196,-64.04074 91.18728,11.73242 154.5748,100.71862 161.29272,188.3445 12.93052,117.88008 -69.20948,240.08464 -186.48928,265.32052 -66.212,15.92536 -149.87384,-4.97772 -181.19944,-70.44356 -17.72704,-32.1214 -4.14696,-83.10744 36.197,-88.12768 48.4662,-5.1274 81.5594,45.1892 84.79724,88.61604 8.73568,93.37648 -64.38308,176.777 -149.4688,205.07152 C 444.77033,1002.5799 302.06869,949.7887 238.40485,841.72622 195.04502,773.15714 190.5228,686.49082 213.87155,610.1349 225.85305,573.71354 227.41274,532.54638 207.43522,498.50618 181.39106,449.74202 134.64292,401.1203 75.476623,401.86894 59.746391,403.69674 41.633627,408.96978 30.845831,420.0315 60.978595,385.82482 70.209943,338.86391 88.805987,298.12307 126.86624,199.39105 198.51346,107.91185 300.33441,70.504855 c 95.1076,-37.528144 217.39112,-20.021576 283.3268,62.913525 33.7702,41.13315 50.16792,108.7121 11.60172,152.08729 -22.231,26.79721 -69.05328,20.16386 -82.09996,-12.38198 -23.4896,-52.98595 14.67516,-111.88529 60.29976,-138.61067 90.46712,-55.611609 214.2644,-25.9081 283.23628,50.66872 73.51016,76.55231 92.8226,206.15592 28.26328,294.04016 -32.17452,45.79476 -96.3038,79.918 -150.64096,52.98732 -32.78392,-14.78376 -41.84044,-62.5514 -14.20008,-86.653 42.13768,-39.14268 109.64212,-22.29644 149.17856,12.23464 80.40556,67.33548 91.37876,192.4774 41.68228,281.23604 -49.40864,95.90744 -168.96368,155.93748 -274.03396,120.75216 -53.72472,-16.78728 -106.503,-67.93104 -96.579,-128.3418 4.15964,-33.78296 44.7028,-56.01448 74.46788,-37.7476 47.71824,27.54628 50.53824,94.24544 30.20688,140.04308 C 605.14821,927.8049 494.40509,974.25014 396.80241,960.86322 279.16999,947.74826 179.57483,857.53354 142.21045,747.10326 116.5775,682.61254 119.46273,610.95514 94.563655,546.4477 84.076303,523.05354 63.511931,492.68382 34.147007,497.67494 c -22.905824,11.54476 -2.429092,45.09148 19.096176,41.87652 49.017117,-2.63868 79.397887,-53.01492 86.302847,-97.22924 8.9341,-67.76796 2.01408,-138.28768 26.34564,-203.56655 36.65097,-114.74056 146.80502,-203.338887 268.32678,-206.804675 97.72652,-5.326724 203.37396,50.299304 234.65844,146.791855 16.00012,47.14414 7.32284,112.52889 -42.17892,135.82248 -32.25724,15.92487 -71.26464,-11.24756 -71.83124,-46.13728 -3.69788,-62.30141 54.78136,-108.86291 111.0138,-120.67513 107.95056,-24.66092 221.4546,45.55417 262.12392,145.63658 41.65068,92.98336 19.04896,217.33048 -68.29532,276.08824 -41.83652,29.10192 -108.43976,38.43708 -145.23808,-3.5562 -24.78004,-27.13764 -10.12592,-73.41672 23.91248,-84.60684 58.48208,-22.14972 120.72528,19.80708 148.73208,70.1942 56.71616,97.30532 21.34872,229.02204 -64.81608,297.0642 -89.0236,78.56044 -252.59748,79.8342 -318.24952,-28.92216 -21.69324,-34.94192 -24.1164,-92.90184 16.93324,-114.564 35.91208,-17.60064 72.37952,18.34444 75.1824,53.35692 9.14344,73.294 -49.9646,137.15676 -114.589,161.9938 -107.3198,43.37648 -233.32125,2.6494 -311.81104,-77.91008 C 109.3683,782.79482 73.068191,704.14218 41.097047,626.7333 40.157315,613.3747 60.638515,623.10354 68.510551,621.3807 128.78579,628.84054 182.09583,588.79478 215.38528,542.11334 238.20485,508.50378 262.99399,471.75222 264.99306,429.96502 260.58746,393.3831 235.20253,363.16174 229.40785,326.64769 203.63108,219.36321 265.95124,104.3651 362.52966,55.643351 467.59577,-1.8618008 613.08849,20.477556 687.99829,116.55558 c 43.92076,53.70668 61.89644,138.87344 17.2138,197.42452 -20.74888,29.76477 -70.60532,42.99247 -95.603,11.32388 -28.3332,-37.92728 -1.591,-90.48907 34.13836,-112.9882 75.15736,-50.47691 179.74784,-25.49945 241.82224,34.65313 87.80316,79.88474 106.75876,225.83047 35.88036,322.54487 -39.54068,56.88784 -117.0162,97.10512 -185.13172,69.0614 -35.09312,-12.5476 -60.08576,-59.46192 -33.91376,-91.46608 32.47588,-37.78952 92.57264,-22.64552 124.29556,8.47716 68.45268,63.601 69.0616,174.648 23.0262,251.40296 -57.94816,104.2164 -196.40864,157.1128 -307.34976,109.35076 -62.43444,-25.06636 -118.32056,-89.2878 -106.734,-160.0602 3.533,-32.79152 39.38968,-65.8712 72.29356,-47.40484 37.92784,24.1134 29.91848,79.18564 6.74328,110.951 -50.73508,72.06756 -151.72896,88.3662 -231.73874,62.99484 -65.16238,-20.98912 -128.57534,-64.1304 -156.94224,-128.30108 -12.91122,-27.99748 7.07679,-55.784 28.92559,-72.02252 48.71338,-39.06108 95.1287,-84.39624 117.76877,-143.97552 25.94265,-56.21548 30.65936,-120.32936 61.0326,-174.556 7.0264,-10.10929 19.7707,-27.24596 33.252,-20.81941 -5.68557,10.9069 -23.69351,2.16519 -31.87231,-3.15115 C 284.96979,302.3448 282.89794,228.43516 304.66719,174.41655 346.8828,66.578979 473.72725,8.1640423 584.67905,31.631215 c 103.64536,18.122972 196.5554,109.031065 197.3998,217.511995 1.21908,54.02201 -29.2582,118.29244 -87.76096,126.70397 -35.97744,6.43572 -68.43144,-30.29623 -58.45444,-65.23364 14.1384,-58.39899 81.64312,-83.84546 136.44272,-78.10856 109.404,9.74682 193.84412,111.81132 200.8496,218.41392 10.42032,102.79636 -51.48132,214.52948 -153.8974,243.60348 -50.84844,15.28772 -119.92224,3.065 -142.76388,-50.41628 -15.72432,-33.61712 12.57468,-74.1246 49.0356,-73.55804 62.2834,-1.16908 105.7472,59.55364 114.37588,116.11948 18.34708,108.31024 -57.07348,216.35588 -157.726,252.58704 -97.76376,38.72076 -223.89476,9.4046 -281.78072,-81.89652 -28.361,-43.44924 -38.83186,-109.97528 1.0178,-149.86652 18.85772,-21.97176 60.4046,-15.39332 64.94248,15.31972 7.1266,48.01484 -40.30872,84.3534 -83.29316,92.05788 -52.52564,11.30868 -121.09548,-11.04936 -135.4372,-67.8958 -8.94782,-53.77444 21.17888,-103.34724 32.76051,-154.43212 22.77674,-74.13244 17.08286,-152.77092 3.42447,-227.99739 -6.85914,-43.22327 -14.28411,-98.55807 25.04957,-129.04857 42.39295,-34.29796 122.50377,-17.67003 134.71461,39.33624 5.97196,24.99724 -22.51072,46.33798 -44.99064,34.15628 -45.25061,-22.2562 -50.85651,-82.74935 -37.04293,-126.08021 31.06633,-99.152435 141.96205,-155.081851 241.57873,-143.375307 113.42392,9.456792 217.865,103.901297 224.77976,219.938197 4.95008,61.61086 -24.79796,134.59916 -88.42004,153.05296 -33.97752,11.92876 -77.72908,-12.61872 -75.29124,-51.0535 3.4236,-52.90666 61.79688,-81.35057 109.5198,-79.56052 99.6464,1.88142 180.6144,89.19998 197.04672,183.83978 23.36324,110.84684 -38.406,237.0552 -147.51888,275.20132 -57.2064,21.12688 -134.68776,12.38808 -168.71836,-43.60984 -19.67788,-29.32404 -7.17332,-76.6134 29.64964,-84.18292 51.70896,-11.21816 95.48356,36.68324 107.29792,82.9704 26.92032,95.90156 -32.92448,198.37988 -118.0644,242.53188 -103.31444,58.13848 -247.8242,34.20688 -320.16548,-61.87028 -40.32869,-51.42204 -58.22948,-131.90812 -15.94527,-187.3922 11.56795,-15.78436 41.59951,-33.48776 56.11567,-12.47944 4.70916,23.98104 -31.09366,28.10428 -44.9624,14.93308 -36.44647,-29.27492 -36.6846,-81.0262 -44.39726,-123.37764 -8.85937,-74.15372 -29.3058,-149.10908 -76.72257,-208.39742 -22.61679,-34.50921 -60.85371,-63.47166 -64.21699,-107.20505 2.98105,-48.0764 46.74526,-80.9302 86.07468,-101.67552 75.7732,-38.83969 181.5789,-34.24549 239.29342,33.95343 24.85484,28.18976 37.16316,80.39092 2.64196,106.15027 -31.0998,20.2037 -67.62184,-10.76877 -73.27368,-42.33502 -16.18956,-71.86269 37.85852,-140.70996 100.6924,-169.253959 109.40272,-53.076464 251.38704,-6.3736 314.01976,96.235839 48.3186,73.54821 52.93172,182.30721 -10.73312,248.44451 -29.68208,32.6576 -88.33116,51.0364 -122.80464,15.60752 -28.1186,-30.28492 -6.11636,-78.69816 28.11216,-93.39579 67.14756,-32.6734 147.8998,3.90037 190.85232,59.34035 74.79788,92.17984 64.74344,236.98836 -16.88576,321.66692 -57.85324,63.89332 -160.0148,95.6024 -238.32176,50.89704 -37.76588,-20.05496 -68.61312,-71.648 -42.03184,-111.7264 24.19772,-34.15924 76.6762,-21.90512 98.72948,8.34448 47.75692,58.66352 31.70456,146.70224 -11.91564,203.0048 -71.74256,96.52656 -214.13704,124.14436 -320.10624,70.79392 -92.80226,-42.97812 -158.75423,-149.4984 -136.00955,-252.41168 6.39129,-35.55076 28.70635,-64.4748 49.45645,-92.76152 8.1674,-23.6304 -11.0617,-45.9656 -18.34026,-67.54672 C 250.95661,467.82538 210.38857,393.02318 136.04824,364.65958 112.2872,353.40417 82.850215,355.24667 61.509115,339.70754 53.960295,317.41225 71.735291,295.50474 80.038275,275.55157 132.59821,174.8003 228.06132,89.258915 344.19237,75.761123 c 84.89972,-11.41296 183.65608,23.4923 221.5876,104.902157 18.25284,36.76642 16.1182,94.87223 -26.58544,113.28745 -36.5602,14.50382 -69.43028,-24.16106 -68.26016,-58.72672 C 469.42161,162.2876 535.56113,105.99442 602.23493,90.809631 718.64557,61.095907 846.74725,133.92294 888.05569,245.2221 c 33.42364,81.82748 16.57612,190.30664 -59.76708,242.28156 -35.16644,25.42788 -94.92352,31.40516 -121.55752,-9.08708 -21.9722,-35.01988 8.70144,-78.48884 45.09792,-86.51276 72.07972,-19.48156 144.54836,31.54248 176.35228,94.05184 56.17828,104.53088 19.20824,244.82196 -76.7534,312.75124 -68.68544,51.8912 -174.58516,64.06868 -243.41812,6.12524 -33.24496,-26.4226 -54.68788,-81.74228 -22.5114,-116.899 28.08044,-29.07184 76.48936,-10.01384 92.9452,22.3376 36.8828,63.94996 7.13964,146.16 -43.62084,193.48292 -86.0996,83.83528 -229.5426,88.21196 -327.56915,22.78848 -89.84862,-56.1412 -140.04197,-164.0914 -132.81441,-268.86076 2.16016,-54.94196 18.86369,-115.161 -13.02372,-165.10408 -22.06772,-36.9052 -64.675439,-72.97348 -110.342287,-61.16096 -11.04096,4.19684 -30.437788,17.45448 -22.719036,30.53468 21.396976,-0.032 32.014424,-25.13916 40.668792,-41.64256 C 96.190215,352.06263 106.05947,277.07934 144.04601,213.09433 199.37342,110.27959 312.59003,36.260435 431.35193,43.942751 c 88.42692,3.761668 181.1474,59.712759 202.70076,149.671659 11.05844,42.03507 -3.01696,100.52023 -50.21796,112.30643 -37.21616,8.92304 -66.37828,-31.38302 -60.94572,-65.69222 7.10148,-69.64136 77.10456,-114.87771 142.24944,-121.27035 118.46024,-14.54978 234.39912,74.5612 260.7162,189.10681 23.31584,87.8461 -9.31548,195.88926 -94.15252,238.13678 -39.42836,20.89748 -101.17868,19.26316 -123.21464,-25.47704 -17.6508,-36.5132 17.06572,-76.04412 53.78536,-78.8994 71.40796,-9.64076 134.01608,48.74004 156.73536,112.34104 42.08948,110.55432 -13.50548,243.8188 -116.75364,298.53688 -77.83324,44.57128 -189.225,41.34328 -251.13764,-28.94016 -28.94268,-31.61052 -42.9986,-89.41724 -6.5568,-120.77456 30.27988,-24.8688 74.71384,-0.43524 85.33072,33.21868 25.28748,67.2204 -17.2602,140.83964 -73.2618,177.96984 -95.66408,65.955 -230.4113,50.26208 -319.63841,-19.56604 C 158.17353,836.51578 115.50603,743.6425 92.472223,650.95362 80.192895,612.3395 73.339899,566.38618 39.631527,539.95918 c -13.016324,-10.2372 -18.254424,8.187 -7.663284,15.25196 28.184936,30.87208 76.064387,11.17308 101.519327,-13.46264 39.72038,-34.48152 53.68845,-89.7686 45.78224,-140.48568 -10.14908,-75.26176 -7.58244,-155.69401 30.77744,-223.302 C 267.85321,67.394495 403.95513,3.9591199 525.36577,36.124691 c 88.0898,20.67746 169.33452,97.590389 169.48544,192.203799 1.06052,43.72727 -26.6562,97.31611 -75.47188,97.94712 -39.95348,0.21964 -59.71904,-47.90784 -45.77252,-81.31645 23.84532,-67.91058 104.79664,-96.51543 171.47948,-86.84579 119.23616,14.11513 211.83324,128.82985 209.53744,247.30105 1.19856,88.58996 -54.45712,183.59384 -144.78264,203.872 -42.07764,10.70852 -99.88256,-5.71272 -109.73864,-53.2042 -7.53008,-40.64136 36.9784,-69.75792 73.76684,-63.817 74.09192,8.37368 122.64048,82.38164 129.25976,152.09956 13.93592,118.51692 -72.89056,235.63636 -187.65904,263.4956 -83.637,22.76776 -186.71904,-5.0576 -230.29964,-84.3442 -20.312,-35.68324 -22.55368,-91.98848 16.93256,-115.35204 34.45476,-19.20216 72.05616,15.35012 73.76976,50.19 7.146,70.5022 -51.3778,129.8342 -113.67024,152.30568 C 356.85454,950.36098 235.84603,908.9043 159.08849,831.20914 116.08266,787.39918 79.274807,735.21286 59.843591,676.61758 52.408579,652.97574 82.716367,650.2877 98.361275,646.31062 151.11072,636.91246 197.2591,604.73074 227.70141,561.12546 259.32179,516.40638 283.68318,466.46466 302.39174,415.1107 308.22597,389.09358 279.03706,374.03582 270.33447,352.22812 222.54961,269.22108 252.65611,159.80607 320.54291,97.262319 409.16825,9.9984943 561.13029,-1.0252328 660.27977,74.771467 c 67.41472,48.598953 110.5952,142.708293 76.08972,223.072173 -14.94348,37.33318 -60.638,70.86866 -100.28692,48.99924 -36.79096,-21.46214 -29.41396,-75.57942 -2.32604,-102.03563 53.60116,-57.68127 146.80072,-54.54052 211.04976,-17.11515 105.14736,57.93647 152.41376,197.56528 106.79336,308.10144 -28.98008,75.8618 -106.7848,140.229 -191.3374,128.12204 -39.6058,-4.64024 -82.90708,-39.73088 -72.59356,-83.22868 11.54924,-42.3744 67.19612,-49.45184 100.86724,-29.7822 70.89976,37.06508 93.5918,129.02188 74.32392,202.24288 -27.84496,118.95292 -152.72688,203.3528 -273.41116,187.18208 -80.85564,-8.2866 -163.31912,-66.771 -174.083,-151.49848 -5.33788,-36.13612 13.01508,-85.3898 55.0554,-86.82536 37.71424,1.40076 50.10604,48.27004 37.43076,78.2372 -25.61508,69.28392 -107.49764,99.28672 -176.4753,91.8992 -64.46744,-6.97608 -132.65404,-39.35372 -162.79158,-99.43448 -17.94771,-38.00668 12.02268,-74.17036 34.8312,-102.07916 43.79109,-51.62372 78.63442,-112.06924 90.47936,-179.43012 13.67795,-54.97012 9.50449,-115.5006 38.0548,-165.93587 10.82184,-20.36854 44.601,-36.43379 60.6698,-13.52852 8.39372,19.87103 -20.87208,25.7939 -33.61668,16.45366 C 311.30618,300.38317 305.33006,235.01119 320.34631,186.69618 351.89496,82.115183 466.74729,19.492388 572.34417,30.713675 681.66185,38.653471 785.37261,125.0876 796.93165,236.85351 c 7.40244,59.05903 -18.83252,131.6127 -80.66932,149.45555 -34.15368,11.70364 -75.27736,-16.25075 -70.885,-53.59807 5.31056,-55.87721 66.79264,-85.84204 117.65948,-84.42657 103.86124,0.61594 190.30432,90.27272 207.6632,189.23216 22.59584,106.77804 -33.56716,229.83968 -138.39784,269.01592 -53.4794,21.247 -127.62696,14.627 -159.6586,-38.72268 -20.21084,-30.20008 -2.6702,-76.55316 34.36068,-81.8522 56.36288,-9.10092 102.27708,42.76788 114.79716,93.20016 27.31884,100.18324 -34.42004,207.73376 -124.284,252.80104 -99.15424,54.036 -237.37776,33.35648 -306.8026,-58.81568 -35.86662,-45.97884 -52.71347,-119.0054 -12.6362,-167.57136 14.46416,-19.90444 51.94852,-26.7388 63.17188,-0.2292 12.58332,37.27644 -26.38884,69.96888 -60.26196,74.97016 C 336.05723,790.8401 284.2633,760.41622 279.92226,712.55482 273.70058,649.79186 296.84765,588.54838 296.00921,525.76358 299.75047,450.1281 270.6818,379.14762 250.23195,307.87238 238.43,270.48471 247.48026,224.61051 282.96707,203.338 c 56.2804,-38.2623 148.95302,-24.8032 179.5383,40.0612 12.98772,24.1 0.6562,63.3009 -30.62508,62.15158 -43.36984,-4.12308 -60.69252,-55.56936 -56.08356,-93.22986 9.39716,-89.87337 94.3406,-154.989641 180.04728,-165.908569 118.93736,-18.876492 246.1946,58.654139 278.41928,175.781359 21.22412,69.53663 3.0988,159.26855 -64.36164,196.70607 -32.0128,19.57688 -85.03612,12.03412 -95.77056,-28.48344 -10.83836,-46.52207 35.75088,-83.89377 77.93944,-89.18621 88.64092,-14.03871 172.1806,51.78195 203.50368,131.50037 46.18329,108.52596 3.71336,247.84872 -99.50156,307.18104 -60.47944,36.89228 -150.13668,41.83832 -201.25352,-13.67048 -26.28852,-26.02824 -29.42464,-78.75712 7.43544,-96.8718 44.38656,-20.46676 91.79828,17.50664 107.4444,58.19712 35.76568,86.2718 -10.56708,187.20484 -84.2196,237.60448 -98.5918,72.28488 -248.48568,61.52512 -333.44216,-27.3322 -52.96815,-53.01212 -81.26788,-141.2336 -42.53538,-210.0694 11.31266,-18.36728 32.86086,-41.86028 56.53711,-33.91496 2.9197,9.0856 -14.74726,2.80992 -17.61468,-1.31684 C 314.77923,620.79706 310.24,571.22282 296.23558,529.38646 277.90557,460.70038 245.94139,393.2471 189.86223,347.41017 166.43467,323.1923 128.89317,306.07843 122.30546,270.0899 c 0.1465,-42.58717 34.48542,-75.43494 64.38281,-101.66963 76.85469,-64.05762 195.64026,-86.568139 283.3429,-31.25921 42.63356,26.30632 79.42752,81.68762 57.59292,132.27417 -12.02668,30.43482 -56.12172,35.61376 -75.38856,9.42751 -35.60308,-44.25016 -14.6472,-109.6587 20.97696,-147.26549 72.98656,-79.815779 203.19336,-84.394587 291.11344,-27.06591 91.96224,55.3061 144.3976,177.5323 103.1592,279.8378 -19.82024,52.23824 -73.30824,101.02776 -132.53396,88.48892 -35.41568,-6.1728 -56.02228,-50.1736 -35.26964,-80.37548 31.07272,-48.39474 100.66024,-48.88834 147.53564,-25.24726 94.6772,45.23634 136.43572,163.80794 110.2912,262.1697 -23.94948,104.4844 -123.79084,191.95884 -233.64204,184.68536 -56.50976,-2.5022 -120.9412,-39.12964 -126.07832,-100.4814 -4.46044,-35.3834 31.80012,-67.08228 66.17972,-55.80256 55.38604,16.77572 74.69112,83.87724 64.91092,135.68792 -18.121,104.80948 -121.61392,177.91404 -224.46292,181.69796 -120.5368,8.39828 -242.57458,-73.92556 -272.7556,-192.25828 -17.78802,-61.38116 -4.05849,-127.07888 25.20147,-182.59268 20.67087,-39.06656 -3.97017,-81.3994 -23.26995,-115.37952 -32.71802,-54.7624 -85.91437,-110.12496 -154.785371,-106.91 -12.176056,-1.95272 -27.982368,6.08132 -37.996056,-1.16776 9.767728,-33.81239 27.89648,-65.29521 42.754836,-97.33995 C 130.85949,182.15678 213.66152,95.536559 321.83634,69.860711 c 91.81847,-23.961048 204.02139,3.8412 255.54999,88.308869 24.5512,39.02145 31.31476,100.0297 -8.49296,131.55037 -27.5082,22.22545 -69.50812,2.28427 -76.6956,-30.40878 -16.55748,-60.89563 30.6772,-119.52862 83.45952,-144.14799 102.53028,-49.747429 233.08944,-4.4421 294.7774,88.23715 58.15376,80.84571 62.41824,204.21053 -8.81936,278.64277 -34.10272,37.38808 -98.3584,60.42512 -141.6032,24.98268 -29.52828,-23.46564 -20.00028,-72.18344 12.13336,-88.46764 56.37752,-32.31824 127.6228,-0.87532 165.5616,45.87252 74.17492,87.2366 63.17276,225.80504 -11.69664,309.074 -62.58668,74.6386 -178.04436,109.60488 -266.36356,60.77952 -43.40092,-22.64164 -81.09044,-77.377 -57.94468,-126.46112 15.64088,-33.51076 63.9386,-34.48448 86.59464,-7.90076 44.56728,47.93252 30.47924,124.70832 -5.91788,173.13748 -65.9986,91.47432 -197.0822,117.03568 -298.85448,75.96104 C 237.69176,909.74414 163.92324,806.24258 150.39593,695.55554 138.72206,631.10286 155.35975,559.08346 117.94289,501.20826 101.06213,475.58814 65.601515,448.2639 34.637431,466.19942 c -16.517504,9.40044 -13.073276,41.61928 9.733704,36.78344 39.507116,-9.93392 54.763684,-54.81124 62.864765,-90.28008 13.88069,-75.7859 22.54755,-155.2103 64.01651,-222.17562 C 230.74774,85.896347 355.8629,18.99774 476.13161,40.809147 c 86.00532,13.653088 170.29376,79.204303 180.28796,169.781633 5.44524,42.18069 -16.07912,97.21182 -63.58948,101.74954 -39.1848,3.18834 -62.10668,-42.32355 -52.11864,-76.30082 16.38928,-69.80704 92.85844,-107.55086 160.11236,-106.11955 119.90024,-0.49967 225.82892,101.59782 238.37396,219.30171 12.26496,87.72244 -31.03904,188.91808 -118.08868,220.35064 -40.40352,15.90036 -99.79324,6.82808 -115.54168,-39.03064 -12.566,-39.38696 27.96096,-73.85508 65.20968,-72.57056 74.62116,-0.96596 132.09436,66.46056 147.36932,134.8668 28.3766,114.9886 -41.91496,241.3682 -151.29424,283.74152 -80.52016,34.15432 -188.17932,19.21744 -240.64,-55.75304 -24.84068,-33.68376 -31.77836,-92.06632 8.02124,-117.39624 34.0444,-20.10748 73.6296,11.292 80.03556,45.79996 16.57116,71.4732 -35.57744,140.61084 -97.03908,171.4136 C 414.83741,974.2323 284.49987,945.0005 201.24408,869.21178 132.25829,810.16266 95.808143,724.75782 65.141059,641.51994 56.187535,620.7723 46.656919,594.19078 30.925911,580.3175 c 34.59732,29.58264 86.380569,18.00728 118.799839,-9.09732 45.6557,-36.66548 84.85523,-96.1008 70.05418,-156.93776 C 203.2706,354.30916 190.52907,290.29661 208.25621,228.97448 237.98043,108.72613 358.0773,20.824951 481.32053,25.573427 c 101.01392,0.728812 205.17292,67.742316 228.12928,169.638013 12.15596,50.47082 -3.3794,117.4144 -56.9886,136.75309 -34.08772,13.15835 -71.63352,-17.63489 -68.50648,-53.26307 2.77612,-61.56466 65.14268,-101.26445 121.61024,-106.78355 110.14216,-13.07648 215.29212,69.97822 244.15448,174.12203 30.75136,97.15252 -5.8956,218.06788 -99.19516,266.72016 -45.41616,24.9106 -114.15284,26.602 -146.0232,-20.462 -21.177,-30.01936 -0.85776,-74.09048 34.30752,-80.92792 60.77076,-14.62184 117.16896,34.69676 138.66924,88.15144 43.9944,103.34644 -7.1488,229.2068 -100.59364,286.23768 -85.41916,56.47828 -212.42764,54.31932 -285.03268,-22.5434 -34.98248,-35.79544 -56.11996,-98.79568 -22.01252,-141.88328 19.66408,-26.62844 64.14576,-20.9598 77.26184,9.26892 24.78652,50.80228 -8.64536,109.73304 -50.71684,139.92148 -82.55356,60.7932 -199.9021,48.97468 -282.98114,-4.5718 C 159.41263,830.76534 110.23154,781.68878 88.273771,720.0149 c -8.80482,-22.32488 10.295368,-41.24244 29.432259,-49.1112 48.91991,-23.81872 96.65147,-54.60532 125.18944,-102.39204 40.94566,-59.71576 53.9012,-133.67156 94.37166,-193.43844 -7.13504,-9.98468 -22.993,-13.34339 -30.82181,-24.16124 C 253.39763,294.05859 262.43823,202.64331 302.43087,141.08816 367.05057,36.809627 510.89873,-3.4140988 622.12709,45.496543 709.65965,80.608007 778.89057,174.15236 763.23581,270.91171 c -4.46028,54.27412 -64.78472,118.63867 -120.05252,83.32987 -34.5082,-26.77542 -19.99384,-80.55006 10.54948,-104.4076 61.01264,-52.28374 155.27024,-39.20594 216.32368,6.17352 98.14876,68.84015 130.93265,212.68888 73.5014,317.67976 -36.0192,70.66672 -118.37256,125.59516 -199.31452,104.86308 -39.23452,-8.37008 -78.23872,-50.40284 -59.81432,-91.7648 19.76624,-40.11824 76.29472,-37.47232 107.67148,-13.15516 68.45276,48.89636 78.75316,148.29428 46.8544,221.37888 -45.4514,113.57744 -181.35604,179.835 -298.82204,145.60252 -75.89988,-19.682 -147.00612,-87.02152 -144.839,-169.65824 0.2352,-33.7194 24.04584,-76.44164 62.71092,-71.4024 36.19128,7.75076 39.23248,55.72244 21.8976,82.11168 -38.377,65.29792 -128.58296,80.27904 -195.22338,53.90948 -42.67076,-15.49108 -87.88672,-55.02712 -77.64846,-104.99788 13.97703,-55.0724 51.83548,-100.3962 69.02507,-154.46452 29.11535,-74.09324 20.81126,-154.6792 24.88568,-232.32732 1.38089,-36.37024 19.91278,-80.18198 60.47228,-85.23968 27.85101,-5.72576 67.38413,17.96891 55.81333,49.68702 -15.48448,25.09296 -50.92043,8.19166 -63.08292,-11.64711 C 315.37088,240.0886 337.80971,162.22331 380.16553,114.24289 457.61585,23.578647 601.98733,8.9838523 700.66065,72.674687 783.01509,121.887 836.37837,227.92165 803.66489,321.98432 c -14.64888,45.36618 -60.7,90.29074 -111.62552,76.82394 -36.945,-9.22868 -47.22336,-57.83812 -25.45004,-86.22639 38.068,-54.55433 117.42412,-57.83231 173.56536,-31.88199 113.08696,49.49984 162.92061,191.17158 121.06532,304.24342"
  />
  <path id="shape2"
    d="m 211.61262,759.72057 c -33.16468,1.00282 -52.3611,-41.01872 -32.25814,-66.55758 27.50461,-53.06685 48.60412,-109.21479 65.41718,-166.42331 7.28455,-4.53187 11.63628,11.56654 17.15782,14.74521 22.15586,25.48864 58.59638,53.53455 93.3734,35.26261 48.07165,-27.8203 61.98923,-86.78306 77.20342,-136.15898 24.49274,-96.88153 60.75692,-190.80313 111.02699,-277.30948 9.87717,-21.79836 27.85203,-48.87122 55.77826,-40.76929 26.71087,8.30754 31.39278,40.41029 44.63706,61.59371 27.23576,54.59227 47.9817,116.71836 33.30827,178.04463 -9.26288,51.14275 -28.60937,108.55837 -0.94127,157.30312 29.27841,43.41279 86.19027,43.70086 129.66757,63.84932 49.45591,26.40858 74.27705,80.18312 103.51942,125.30707 20.61399,36.28399 44.10365,71.36573 61.82886,109.0189 8.63502,28.27424 -21.58226,53.19629 -48.53905,45.95949 -96.12585,-4.10746 -189.90636,-27.1566 -285.21108,-37.98547 -51.42524,-4.06125 -112.74003,-4.29585 -150.22782,36.81348 -22.38643,26.10765 -11.29601,64.41984 0.38027,91.56069 -86.45022,-41.10291 -184.71386,-44.97528 -278.79861,-47.11825 -23.11406,3.01272 -52.49009,-3.47284 -57.93142,-29.9305 -6.21218,-30.44156 20.21809,-54.21253 30.52761,-80.83453 35.87263,-72.12168 76.16865,-147.35904 76.50935,-229.93776 0.072,-29.66514 -14.1521,-71.12061 -49.6402,-70.95622 -25.89325,1.57547 -52.74666,31.62386 -41.03887,57.20958 19.77508,19.72884 49.85467,2.06952 68.80004,-10.46766 69.03798,-52.22146 113.09845,-129.02166 158.79933,-200.87304 21.72101,-33.71796 39.56638,-70.15396 62.51902,-102.87086 21.1254,-22.28344 58.75998,-10.29494 69.80898,16.43127 36.29362,50.93924 73.76639,105.07481 128.67529,137.42357 3.06726,3.37433 20.68375,6.83875 12.02391,-1.26861 -25.49532,-14.21233 -62.76914,-14.3669 -85.29224,5.71981 -26.86594,31.86177 -9.31271,77.47322 8.3976,109.39041 44.79524,74.60973 107.5909,136.24888 155.77236,208.57999 27.60145,40.95422 56.04584,82.08588 77.52944,126.50045 8.79641,26.6045 -17.1161,54.10414 -44.21465,48.45186 -53.4417,-2.52592 -110.25131,2.76566 -160.09309,-20.10031 C 575.35474,843.81251 562.2692,787.73425 521.6209,757.39874 493.61203,730.57559 450.52035,733.24197 418.5459,751.0201 371.16897,776.12063 329.43931,814.07363 275.13997,824.16749 200.61299,839.7782 123.69794,839.42831 47.940704,838.45634 18.138964,833.65845 8.6801212,794.12178 29.550353,773.88735 78.082261,699.1058 141.46699,635.97907 206.40385,575.56431 c 39.03552,-39.27225 83.57726,-84.90889 83.56013,-143.94554 -1.46779,-38.74893 -38.45911,-59.94678 -66.19445,-80.06662 -7.41489,-14.06833 12.18278,-25.25022 18.90562,-35.95054 57.00041,-63.00333 101.73522,-135.62381 145.22896,-208.16734 20.6512,-23.80361 59.84407,-10.499055 69.21308,17.42007 48.77341,81.8033 91.96601,169.91005 162.26953,235.94314 29.52281,26.23436 74.31131,53.9161 113.76607,32.69582 24.71576,-14.73622 29.60696,-56.88096 7.11847,-74.98909 -19.82426,-3.78051 -23.58072,23.85172 -24.49877,38.46157 -0.14558,74.78264 33.76706,144.15165 64.83054,210.42319 20.22586,43.26813 46.28385,83.78893 66.94779,126.59555 8.61195,29.95945 -21.59208,56.04219 -50.39046,52.27737 -67.71981,6.27758 -139.19333,12.83646 -198.66933,48.71319 -10.69723,7.32756 -30.76393,23.30336 -18.01632,36.39008 24.72886,7.69535 49.45375,-14.6555 59.87468,-35.54655 12.34462,-32.39327 -21.1989,-58.84151 -49.04348,-66.57272 -74.54108,-21.76358 -152.96872,-7.50043 -228.94596,-3.35346 -70.40298,4.70198 -141.39771,10.41558 -211.78833,6.52147 -29.0065,-6.2607 -38.47653,-44.04562 -19.69105,-65.59967 25.63871,-43.08963 44.35017,-91.07596 77.03192,-129.51215 24.07233,-24.1637 57.98067,-2.97033 86.02061,0.28916 34.49377,7.22844 78.35919,4.59153 97.74811,-29.70082 34.08538,-57.42509 22.30766,-127.50029 38.40008,-190.13685 19.32393,-83.79855 60.97611,-160.48728 104.79875,-233.674505 18.55214,-23.166892 57.51069,-12.93789 64.69021,15.150136 37.61695,73.615879 60.96048,154.405739 65.0175,237.151099 5.64334,56.29945 7.89951,121.98629 52.8684,162.71641 32.86855,26.13754 76.45683,13.21692 114.36329,12.89385 29.35506,6.30843 37.26502,40.77166 50.85403,63.40773 29.66028,62.53829 63.61033,122.93775 96.93781,183.49331 10.42594,29.51455 -20.76637,56.65691 -49.32862,49.93723 -99.19885,-1.21969 -199.18872,-15.91536 -297.93186,-0.79604 -43.71911,8.02095 -96.70701,25.98928 -111.01104,72.95483 -7.14114,27.80175 14.33977,59.28515 41.48169,65.33065 12.83338,-4.40263 -4.1751,-19.57698 -10.07011,-23.38528 -56.63595,-36.75603 -126.33574,-43.99337 -191.93264,-51.295 -47.35213,-5.25991 -95.35463,-3.21172 -142.59695,-6.70761 -30.57049,-7.82341 -36.9825,-47.62573 -19.00446,-70.52606 33.04345,-69.39828 68.48645,-142.49292 67.35471,-221.10871 -1.01332,-21.07277 -8.78562,-53.94115 -35.5202,-52.45206 -27.83667,9.01961 -36.59103,51.03652 -18.9213,73.05842 23.13095,22.20611 58.05324,3.66116 78.39459,-13.38132 62.53062,-55.25211 97.78581,-132.97073 138.67716,-204.07667 27.92955,-49.11724 53.11599,-100.27473 84.40486,-147.18575 20.33203,-22.06939 57.85137,-11.21623 68.05169,15.61689 28.52211,46.57633 63.91062,88.42506 94.78459,133.25984 8.36636,16.0855 -16.41113,19.57132 -25.91129,25.06367 -32.09262,14.35617 -71.43038,40.11204 -66.01245,80.53613 9.39444,58.20761 60.74709,95.60536 100.56677,133.9788 78.31424,69.01707 139.93979,155.03567 189.34999,246.46113 10.74809,27.23755 -16.41307,56.51071 -44.41629,49.20975 C 754.92792,909.90752 676.1616,898.4459 614.47507,851.95833 568.57369,820.92806 521.23608,777.32855 461.85871,782.36706 414.51948,789.899 391.90629,836.33068 360.16662,866.31718 322.73028,895.5799 271.85677,888.0252 227.48688,890.26919 175.44832,889.31107 123.01607,891.71508 71.245319,888.29688 42.259909,881.42952 36.088892,842.6015 55.682025,822.62987 108.02232,738.7238 175.24706,665.15001 226.20998,580.4015 c 23.86727,-42.87009 47.31642,-97.63356 22.86844,-145.07652 -15.57945,-26.52174 -53.05761,-34.75564 -80.69619,-25.61226 25.68242,-6.44464 46.71833,-28.30945 66.27035,-46.06416 58.73044,-58.33744 101.74148,-129.82432 144.38839,-200.06585 20.71555,-23.70103 60.00233,-11.48467 70.67589,16.05593 46.92292,71.81727 94.10464,148.39014 167.24529,196.4366 24.70378,15.2087 64.28651,29.89767 86.93388,3.78798 17.83994,-25.49039 -4.93481,-70.5429 -36.73924,-67.42257 -28.80719,11.42123 -26.85327,49.16683 -23.75486,74.74867 15.64076,87.5754 63.81889,164.47005 105.45414,241.63146 18.90433,36.36074 43.4066,70.27677 59.13821,107.95462 6.76578,29.35863 -22.59981,53.38014 -50.49907,49.51467 -61.64113,5.37871 -126.83216,11.19421 -182.2153,39.34809 21.91251,-22.96291 36.75777,-58.73536 26.51061,-90.12077 -19.79164,-39.07555 -70.72099,-41.83148 -109.19299,-39.12522 -84.35951,8.98811 -166.21056,34.39988 -251.03116,40.62168 -48.84571,3.86577 -98.31634,7.92207 -147.135196,4.32706 C 66.975476,735.69011 56.450475,699.32129 75.241717,679.01924 108.02627,629.13532 138.09279,570.89115 194.00168,543.56052 248.01363,520.28525 315.98961,527.213 359.44237,481.91476 c 32.73938,-38.96842 17.76122,-92.7988 12.12086,-138.29449 -10.15523,-71.92503 30.58929,-136.80289 62.31692,-197.93434 18.03195,-30.26575 32.37833,-63.43958 54.21873,-90.99518 20.55303,-19.278655 54.73673,-5.354443 61.63198,20.46225 42.52547,82.71357 67.01262,172.64667 95.85658,260.58373 18.67599,50.50594 43.11082,108.81819 97.19757,129.26727 34.51825,11.57686 65.8966,-13.69192 91.52297,-33.11586 9.79187,4.93772 6.8477,21.89399 11.35357,31.15005 21.29999,87.45538 65.02905,167.03436 108.11792,245.21583 10.23923,29.84105 -20.67442,57.30102 -49.6691,51.91155 -91.9681,2.55564 -187.18566,-0.37823 -274.84905,31.76489 -33.67321,13.478 -75.0121,38.99773 -73.48082,80.20453 2.46628,30.32016 43.94225,51.43719 68.71244,33.6597 12.18612,-20.45334 -13.51663,-38.67156 -29.11418,-47.9453 -70.50354,-36.52624 -152.11125,-39.71992 -229.78367,-44.88685 -46.08738,-3.17754 -92.64709,-0.64445 -138.51325,-4.16582 -30.06281,-7.34961 -38.0402,-46.23628 -20.43532,-69.26621 27.01532,-59.47308 56.39732,-122.14536 54.69909,-188.88942 0.30077,-7.54828 -5.40995,-30.38799 -15.84573,-19.88129 -9.68166,25.59413 3.21695,58.20312 25.16099,73.63896 34.50952,17.55084 70.16431,-12.49075 90.2122,-38.64779 50.39825,-68.71465 74.69166,-151.78475 112.27397,-227.4505 24.74297,-50.77096 49.27415,-102.35182 80.62223,-149.26357 19.78378,-21.98503 57.22607,-11.17492 65.98199,16.00178 23.65035,43.80573 54.52069,85.31592 66.3928,134.31054 6.78053,42.62266 -32.85078,70.82996 -48.33365,106.46121 -16.98283,29.79108 -21.2921,69.87881 3.13456,97.09075 41.46091,49.9105 108.23809,68.16025 152.61301,115.08993 56.70151,57.1534 97.97267,127.49411 137.01819,197.25987 10.77401,27.91944 -18.1576,56.20692 -46.08034,48.26558 -85.60267,-4.60459 -169.22809,-26.58819 -248.36997,-58.92505 -53.39402,-18.91769 -114.95066,-42.97104 -170.25245,-17.78733 -35.41533,18.41805 -40.1263,61.68509 -51.77061,95.42346 -13.19829,17.52986 -38.63256,6.99109 -57.12046,6.67809 -77.04133,-10.81029 -154.93606,-12.73277 -232.54568,-14.03644 -30.878087,-5.87328 -38.808134,-46.49587 -18.99926,-68.2187 48.92839,-84.88404 108.18537,-165.97707 136.93123,-260.69327 10.9301,-40.25007 16.53579,-93.7962 -19.49567,-123.31586 -22.84439,-17.24297 -62.13315,-7.9751 -74.09926,17.66441 1.98991,16.55317 25.17015,7.9944 35.16998,3.34758 61.99998,-32.81228 104.00826,-92.0863 144.18438,-147.6754 28.63699,-39.60971 51.42356,-83.30688 78.70247,-123.54995 21.86893,-22.50441 59.56108,-8.77169 70.59713,18.14124 41.65707,59.44373 85.51099,122.5593 150.89321,157.79082 15.26083,7.6872 45.3497,16.32862 51.27394,-6.36329 -2.05834,-27.6533 -35.33521,-47.09569 -61.37891,-41.94133 -32.44822,10.61391 -32.96402,52.52774 -26.38617,80.1642 20.48862,80.3805 72.78413,147.06924 115.32728,216.73435 31.32968,50.52678 64.97372,100.22595 91.39559,153.38279 9.02089,28.42206 -18.98801,55.54683 -47.19261,50.53196 -51.16663,0.44722 -102.20154,8.79666 -153.3247,6.53873 -26.17841,-1.90223 -22.29747,-33.19252 -25.01664,-51.94742 -3.89214,-35.44232 -16.38582,-80.23848 -56.32694,-89.04928 C 455.77076,693.5941 399.03148,728.21261 342.88084,746.1298 251.43497,778.61293 152.99129,784.28349 56.80324,782.30461 27.668707,777.92679 16.462121,739.4252 37.024344,719.0316 79.900244,652.38699 134.47687,591.39502 205.40322,554.02456 c 47.71971,-28.49608 105.64115,-55.55791 125.80573,-111.44082 12.54928,-43.33494 -18.37742,-81.0473 -33.61262,-118.87205 -9.0469,-36.80203 19.04362,-68.40456 35.18226,-98.78461 32.66102,-52.02028 63.30563,-105.34244 95.29441,-157.708571 20.13641,-23.747735 59.19337,-10.433207 67.24619,17.722326 47.8545,87.664955 81.56376,183.071065 137.76169,266.066295 27.39586,37.81284 66.88321,79.81274 117.79382,74.77265 28.90623,-4.39509 50.34951,-35.64076 48.49393,-63.70741 -7.04997,-4.90558 -8.11921,13.1899 -8.7482,17.68168 -1.33131,69.62802 28.60877,135.17835 56.84625,197.30047 16.63518,37.06353 39.14458,71.39285 56.20946,108.00692 8.48812,30.53475 -23.26404,55.67822 -52.05061,51.26152 -80.38842,5.47163 -164.93453,10.22567 -237.08759,49.72423 -22.29346,13.06367 -51.87337,39.26623 -36.96068,67.64032 19.24675,25.00616 71.34704,16.56319 76.42508,-16.41879 -1.69625,-33.87421 -39.2799,-49.21878 -66.89251,-58.6 -89.39918,-24.94732 -183.43441,-17.9108 -275.19491,-19.20199 -37.66047,-1.17385 -75.98547,3.11105 -113.20686,-2.05632 -28.58606,-8.6024 -35.04434,-45.78872 -17.59329,-67.76149 26.75284,-51.98354 47.16289,-106.97721 63.65631,-162.9114 6.6105,-5.62363 13.84323,14.67375 18.76221,16.60074"
  />
  <path id="shape3"
    d="m 37.52429,470.43339 c -32.5553064,131.6498 30.24196,280.41144 149.11541,346.58972 65.99966,39.19052 145.86085,45.77156 220.349,33.4734 64.56848,-9.78892 130.07792,9.04552 194.385,-4.9226 61.33964,-11.94256 120.69076,-35.1106 174.53768,-66.68276 24.25252,-11.99336 24.6068,-40.72528 20.55224,-63.78176 -10.19836,-68.908 10.76552,-149.35436 73.80556,-186.76896 30.725,-19.65908 83.498,-23.96968 102.40836,13.44116 13.58772,30.51976 -23.1858,57.25852 -51.42552,49.79672 -59.61736,-8.54116 -87.91828,-85.39384 -57.07284,-134.43356 5.69092,-8.62788 17.67656,-21.74744 1.4072,-27.26136 -67.88028,-46.27464 -80.03068,-143.65969 -47.6954,-214.90101 5.0468,-18.31335 23.91884,-34.87172 19.14728,-54.65251 -18.742,-20.68482 -48.02904,-27.72519 -72.0642,-40.93355 C 663.59006,70.505875 552.72098,27.915843 438.06694,40.718023 313.95435,51.652535 194.20611,132.73004 152.73022,252.58968 c -22.94252,61.29889 -18.70521,128.91763 -0.63226,190.83263 12.6324,40.84588 -19.36563,75.52004 -30.25377,112.50184 -40.341816,108.99024 -1.62994,237.50212 84.43725,313.43292 88.88659,82.40744 222.12954,105.43896 336.50938,70.29724 72.3588,-22.3426 141.63136,-57.84412 199.45868,-107.00148 55.3094,-48.43504 59.87708,-131.51784 117.12308,-178.58928 22.16184,-19.2594 59.49132,-38.75368 86.3284,-17.80224 15.70856,18.05476 -10.56792,37.81716 -28.55068,36.098 -65.27444,0.356 -111.1454,-68.6326 -107.3216,-129.5902 0.77116,-47.72092 33.97456,-102.53472 85.76676,-104.43788 18.77496,5.991 -6.08524,-1.97284 -7.57836,-10.71028 -22.0674,-33.72088 -12.79296,-90.70862 26.66408,-106.84518 15.2102,-0.82264 -2.66368,14.03916 -9.55264,12.7966 C 847.07846,344.18929 791.57938,313.21349 743.41942,284.47304 680.31898,243.55315 618.45766,199.38053 547.46138,172.77156 472.57574,140.2142 390.6291,112.57613 307.91539,126.59435 177.09796,144.82314 66.95181,254.15609 44.741274,383.90635 c -22.49802,112.52376 24.574424,237.9932 122.352266,300.5918 30.49338,21.45028 73.059,32.59408 87.29644,70.99648 25.02035,61.39976 68.04341,117.13444 128.19712,147.25636 93.67744,50.18476 213.60092,37.5756 298.66164,-24.52936 64.19744,-44.06344 112.77436,-110.31396 185.7096,-141.30812 -15.17704,-12.1728 -34.2914,-23.687 -45.4212,-41.34628 -52.6344,-69.74092 -34.9366,-186.2094 45.46916,-227.11168 27.00164,-14.30852 71.137,-16.61704 86.66604,15.02288 9.51656,22.87228 -21.13536,38.21532 -38.3696,24.65484 -30.298,-17.57268 -33.08656,-61.85416 -15.28592,-87.91752 C 838.1465,423.92467 786.57298,377.15827 754.1741,328.97541 715.1073,273.64577 704.28962,205.07701 673.14346,145.96632 643.5553,91.619551 576.69282,73.669587 518.81394,77.113287 423.55882,80.870123 333.40351,137.43014 287.59315,220.92577 c -13.21821,25.5172 -32.09202,49.35542 -60.28544,58.88378 -70.4383,27.05298 -132.18596,78.96006 -163.689392,148.35136 -59.3470864,122.38704 -24.741564,280.02824 77.419722,368.92924 71.34323,65.40724 173.92995,90.87596 268.26034,72.33192 51.50876,-11.1916 103.60072,-18.91476 156.18712,-22.66804 70.69196,-8.53856 140.78104,-29.65232 202.4534,-65.54584 28.91712,-15.21212 26.96664,-50.34132 26.47152,-78.17692 -1.33408,-67.44776 28.79828,-143.555 95.255,-169.90112 29.2862,-12.91808 76.71004,-7.86212 85.40676,28.43564 4.979,34.00668 -37.41956,51.09036 -64.97264,40.60888 -62.14072,-16.87048 -85.50532,-102.0818 -45.30536,-150.79064 8.96332,-7.35872 13.46124,-18.84512 -0.1688,-24.318 -64.8546,-52.85116 -64.82356,-156.46665 -15.63,-219.86054 6.10448,-7.61903 20.12376,-23.10245 3.85576,-28.22753 C 743.61402,136.56602 643.74526,67.265695 525.78754,49.878047 402.51858,28.418867 266.31156,69.746375 186.5074,168.70808 121.39468,245.9043 99.393042,357.83329 135.73922,452.74239 c 10.98746,28.32988 24.99535,59.70212 11.50474,89.87952 -25.08574,63.98728 -32.70477,136.32204 -10.26589,202.24376 38.23091,122.43344 159.29288,208.17508 285.67555,215.5388 110.68768,7.68216 221.35028,-35.46836 305.75436,-105.76068 62.59968,-50.40388 72.6078,-140.66712 137.60508,-188.80844 19.62644,-14.12716 50.2116,-29.28396 72.31944,-12.31704 13.11212,19.13492 -16.58652,31.60428 -32.14488,28.5578 -68.30708,-6.98244 -109.91892,-83.59408 -99.3616,-147.38116 5.78748,-46.33544 42.3192,-97.33832 93.27372,-94.7696 18.48552,2.68868 7.21528,12.07612 -2.16896,-0.45092 -25.17888,-28.89772 -18.14036,-85.87862 19.48892,-100.3929 12.65476,2.81944 -8.07804,14.1226 -13.92776,13.60408 C 842.06462,362.37685 784.6889,327.43321 735.8743,294.35126 674.50894,250.2672 614.88818,198.70005 539.25718,181.28453 460.56674,162.85471 381.2747,131.32234 299.09115,144.68649 170.51757,161.48001 62.575538,268.43173 38.990166,395.09139 c -25.3644,117.80076 24.8626,250.89908 129.421604,313.9832 31.64542,22.2308 72.47543,27.85244 102.06555,52.98332 27.41179,31.62372 46.34763,70.7332 79.93851,97.01172 78.23635,68.24908 197.17907,78.0914 288.75863,31.69416 77.28164,-36.92596 134.5198,-104.2324 210.70328,-143.03084 8.54424,-9.23344 -10.67752,-16.5302 -14.76944,-24.07512 -65.16768,-66.3124 -57.46864,-191.34452 22.54152,-242.53752 28.93744,-19.50432 78.14968,-26.4828 99.70368,7.06596 13.42168,22.23516 -13.9426,46.81808 -35.86892,36.3718 -37.97296,-13.63572 -46.9686,-64.78636 -26.58816,-96.4678 -33.80196,-3.49904 -67.17648,-18.95408 -91.7832,-43.3234 C 744.21466,330.28669 725.32522,249.16396 709.88006,173.65218 702.5545,133.91463 679.15122,95.665755 640.59426,79.869027 555.61582,43.460555 454.14058,56.826031 375.30358,102.54197 314.37523,137.18625 270.75777,196.25695 247.42492,261.61726 238.35224,291.33573 211.57784,308.65609 185.73497,322.54021 99.410818,370.95359 43.867454,466.56667 42.011902,565.22359 35.949898,700.05271 125.97152,832.19883 253.92487,875.39651 c 76.00916,28.13572 159.63379,19.00516 235.35679,-5.03128 91.42368,-26.4302 190.07896,-35.91836 272.86964,-86.29852 35.20772,-20.49384 29.03708,-65.04256 35.048,-99.28028 8.1936,-63.0768 47.96948,-131.3484 115.19672,-142.82132 27.60076,-6.23524 67.92572,11.72 61.10916,44.98088 -10.9206,36.22852 -60.74704,36.6082 -87.3948,17.9704 -56.50964,-32.75608 -64.88476,-121.45064 -14.26376,-163.32844 11.56872,-10.27768 -11.22836,-17.43 -15.0372,-26.33392 C 806.8419,356.33529 820.3763,260.06217 879.1311,212.04896 877.92994,204.72952 863.07354,207.36039 857.32438,203.73021 761.54918,175.99096 681.68202,111.69287 587.42762,79.883043 476.25242,38.112267 344.27763,43.137263 244.02286,110.51363 141.78118,175.77884 80.168742,304.63971 106.99162,424.84047 c 7.35478,42.62464 32.18501,78.8612 47.3401,118.56144 7.75693,36.2734 -11.64138,71.6024 -11.22246,107.979 -8.84243,116.16036 64.63796,228.79896 168.32861,278.13292 132.33579,66.302 299.39491,33.6084 409.34115,-61.2014 64.1024,-52.49004 80.33436,-144.599 151.2674,-190.22084 16.71036,-9.71312 44.56248,-22.52988 59.53248,-4.35876 -0.112,20.3778 -28.77032,19.58296 -43.34888,15.52708 -78.28568,-23.52144 -109.04308,-127.64656 -69.29712,-195.55428 17.55784,-32.6202 58.001,-64.2952 96.09988,-48.0064 14.03984,12.419 -11.88892,9.26836 -14.63096,-1.03864 -20.36104,-25.98556 -15.0502,-75.09094 17.57328,-88.23222 9.16512,4.98752 -11.29116,12.65376 -17.08792,12.87352 -64.533,7.95558 -122.99552,-31.48976 -171.34204,-69.55531 C 670.50934,252.03629 614.74382,190.12831 535.48546,178.92407 488.5461,172.73145 440.73406,176.16988 394.12794,166.39006 308.08095,150.77676 215.04449,170.03979 146.7636,226.05438 38.316358,310.30221 -2.25456,468.80527 51.954318,594.90883 c 33.88918,84.8028 110.283652,149.63852 198.858782,171.02088 30.10674,6.20448 58.53841,20.40384 77.67797,45.07304 49.21991,58.41108 123.98147,95.79224 201.04771,92.66736 84.89028,-0.9692 158.74244,-48.8076 225.326,-96.56696 26.3488,-20.07192 57.0252,-34.28012 82.7468,-54.776 3.51604,-14.87044 -14.74332,-25.24988 -19.76412,-38.27852 -47.46352,-72.37612 -30.74908,-184.71916 47.36044,-228.76292 29.74324,-17.82236 79.38056,-21.13332 97.76836,14.07352 12.30752,26.6178 -21.7616,50.12988 -45.24656,37.68092 -39.45564,-15.47748 -49.07636,-68.36364 -28.45212,-102.47008 -7.88672,-7.75076 -24.37992,-5.879 -34.3956,-12.88568 C 781.33078,386.56239 746.69594,303.20381 738.1973,226.22123 731.00558,180.54163 738.71878,124.43739 698.61382,91.682935 648.30054,53.577231 581.71306,45.379091 520.31322,46.672815 407.08302,49.996067 292.31471,112.89355 244.14515,218.11687 c -18.04841,33.3198 -18.99793,73.17145 -37.84493,105.8771 -24.80882,29.5936 -61.18605,47.22254 -85.35131,77.76782 C 38.463854,493.89235 30.10373,638.08551 90.807942,743.93247 149.6493,853.30963 276.19378,920.41691 399.71774,908.11275 c 83.65896,-7.22556 159.88716,-45.73016 239.73764,-68.481 46.18592,-17.22344 97.64424,-29.62108 133.90528,-64.93204 25.28348,-33.11368 18.94064,-78.20116 34.91368,-115.36572 17.713,-52.35892 63.3178,-105.44644 123.06632,-102.41916 26.47116,-0.3516 53.5096,29.9962 34.51868,54.38732 -29.01904,33.1294 -82.90244,15.19008 -107.05824,-15.1096 -41.33192,-44.84256 -35.10464,-125.74648 18.15424,-158.65676 4.7984,-9.52008 -14.2502,-15.8774 -17.12272,-25.27664 C 820.52546,357.89049 834.56038,268.42805 894.20894,235.0762 834.9475,236.13357 782.02558,203.8358 731.59962,176.48286 643.88942,124.85518 552.01914,70.743971 447.86734,64.430127 319.02811,53.113179 184.99552,119.62799 123.14454,234.57627 c -51.886442,91.1123 -51.287822,210.66224 7.31096,298.55252 16.95393,26.21048 40.84026,53.14 35.13631,86.9034 -8.65105,65.436 -0.87781,134.62524 33.72043,191.96168 62.06714,109.02924 194.37546,165.89904 316.9037,150.415 102.36896,-11.2358 201.9304,-65.89292 256.57584,-154.79824 32.44628,-47.63024 63.6304,-106.1034 122.71496,-123.59068 8.43936,-3.60768 32.78548,-0.71392 22.28768,11.91412 -30.32684,13.9582 -64.04468,-8.8494 -84.0292,-31.06772 -54.96812,-60.37496 -45.57072,-171.65148 28.246,-212.71656 19.41852,-10.128 50.44984,-16.43652 65.21288,4.05692 -0.2856,16.74012 -23.24024,2.71088 -26.49956,-6.72932 -15.10984,-23.55092 -11.23508,-65.5464 16.90536,-76.93876 2.12708,7.34776 -14.08112,9.90516 -20.4882,11.08796 C 831.56398,388.59327 774.20262,346.60501 728.25542,304.47823 673.89346,255.02365 627.76066,186.93939 552.05638,169.27477 500.82962,155.13598 450.40386,176.32201 399.9027,182.15505 346.10935,183.39393 290.84887,176.72767 238.77922,194.35751 115.27612,230.41924 27.859378,353.53569 25.497198,480.86843 19.677146,603.73687 93.829426,728.92839 210.09343,773.59427 c 39.67947,17.8798 84.72476,16.43528 124.75856,32.55732 38.43147,21.70184 70.94311,54.18304 114.00811,67.5352 79.0356,29.42712 167.38304,9.245 238.53252,-31.49316 44.3848,-25.47988 88.66,-51.4664 131.50396,-79.3942 17.4536,-14.16716 -4.00928,-34.28224 -8.8036,-49.60372 -36.47376,-72.84592 -18.27396,-174.87584 54.6674,-217.95124 30.54332,-19.20812 82.5948,-23.36184 101.71996,13.38212 13.10844,27.13976 -20.1264,52.58512 -45.50368,43.22912 -46.49996,-12.36088 -61.09364,-73.43252 -37.31668,-111.79188 -0.1436,-10.73364 -18.6416,-8.43028 -25.48708,-14.82252 C 785.79562,388.41875 755.2815,302.2969 755.3759,225.21511 752.34086,185.31409 768.28094,139.37574 741.5983,104.69479 704.96466,67.307983 651.07406,54.744459 601.4301,44.681063 480.57074,22.643195 344.48811,57.163567 263.5887,153.44579 c -42.8999,48.81243 -63.16168,112.92348 -68.47216,176.78594 -2.94787,42.69166 -45.076,63.97958 -68.16188,95.07858 -76.669866,89.72064 -84.252738,226.21348 -27.604338,328.11044 58.574488,112.4056 187.660148,181.06508 313.506098,169.46316 94.39884,-7.18076 178.76124,-54.31956 265.49968,-87.71988 42.31736,-19.20188 95.73496,-37.79172 109.738,-87.54276 14.31792,-54.27908 28.29912,-114.15296 75.01496,-150.509 26.55344,-21.94296 72.64184,-36.99336 99.62324,-8.08044 18.57212,23.86008 -9.84332,52.74664 -35.20176,51.33656 -67.22152,2.50144 -114.75448,-73.39656 -99.417,-135.19332 5.8976,-30.84596 27.41644,-57.3676 55.50452,-70.66384 -27.17836,-25.70868 -40.53112,-65.6449 -33.0526,-102.89898 5.91228,-29.89668 22.98824,-64.87574 54.54252,-72.93943 -11.1128,8.3595 -30.29508,4.24761 -44.30048,2.55196 C 774.33766,242.83624 703.96994,185.60295 627.91614,143.99523 541.34298,93.064967 438.23514,61.561075 337.64751,81.981527 206.84068,105.04251 95.047826,214.21276 74.893402,346.41281 59.322334,434.21103 88.59231,527.16435 149.8589,591.61507 c 19.61484,19.17632 33.69377,44.55816 31.90412,72.72644 -1.20128,75.50832 25.78318,151.96072 79.99473,205.4874 92.391,95.42952 245.08115,116.50264 364.40231,62.75888 64.59572,-26.5982 114.59852,-78.03728 153.601,-134.66972 30.0296,-39.22528 62.14364,-85.09712 112.77676,-97.67692 11.35436,-5.81312 24.15864,8.32112 5.9932,8.84264 -50.93448,-1.54948 -87.31204,-50.5166 -98.3406,-96.51556 -17.25044,-65.1324 15.40824,-148.06472 84.67412,-165.678 17.90916,-4.30372 49.47136,-0.8182 50.06368,22.35784 -12.47936,15.97024 -33.68148,-5.8014 -37.3482,-19.70068 -7.82668,-20.37892 -3.94308,-53.19452 17.84656,-62.01344 -20.54608,15.2976 -50.52368,7.21492 -73.36056,0.3976 C 759.7727,358.74109 709.09106,283.20665 655.6163,219.07438 620.2479,175.0497 567.16678,141.04834 508.70838,145.37168 c -50.961,0.21512 -94.11,29.17815 -139.52299,47.85185 -44.7598,12.67207 -92.95742,6.8954 -137.18359,22.82427 -119.09148,35.65313 -202.86157,154.10785 -207.02601,276.89975 -7.902256,126.91164 69.00926,256.78536 189.2333,302.38984 46.51517,20.05404 97.7665,18.56676 146.92802,25.502 45.11787,11.3958 83.79287,41.364 130.68967,47.59148 84.27688,16.6266 167.68624,-17.45128 240.02848,-57.78976 26.74908,-16.22404 57.83572,-27.3766 79.8058,-50.11964 8.975,-21.87468 -10.0808,-43.477 -12.6934,-65.19804 -20.91396,-73.8784 8.54584,-166.6712 82.93988,-197.74856 30.52048,-13.6026 79.34304,-9.29656 89.76588,28.01392 6.36568,32.05632 -34.39472,49.81796 -59.88908,37.01184 -46.1988,-17.73544 -58.54592,-80.2976 -32.83072,-119.75668 2.206,-11.83132 -17.49232,-11.3926 -23.94132,-18.4768 -69.24324,-43.03488 -91.66264,-133.03297 -80.24656,-209.73206 1.5632,-31.97573 20.82228,-67.923 1.04512,-97.5134 C 744.67986,84.294659 699.11278,71.084831 657.43238,56.826231 539.5855,19.911447 401.99466,26.996391 299.76359,101.37754 222.61812,155.28185 173.82203,247.61727 176.49384,342.11505 c 1.25602,27.78624 -0.28884,58.18734 -20.89802,79.37302 -47.04521,52.50456 -79.48917,119.84772 -80.455546,191.22792 -5.261556,132.5936 85.781986,259.09444 209.817416,303.05428 93.47749,35.91904 198.66169,22.0146 288.35689,-18.1786 58.81644,-26.75432 118.90984,-52.28628 172.72468,-88.36916 46.64084,-30.75168 47.88428,-91.03372 72.17864,-136.24228 21.37448,-43.2382 63.4626,-87.32656 115.7088,-81.61624 22.50836,0.56016 40.97668,29.4018 22.2396,46.75548 -32.46868,28.78436 -83.12232,7.30112 -107.12924,-22.59648 -44.50668,-49.3546 -38.77984,-141.0264 22.84744,-173.82852 11.4374,-4.29688 24.98796,-6.16708 8.13184,-16.38592 -35.6724,-41.91928 -25.61668,-119.05568 25.34352,-144.0499 12.16976,-4.72258 6.50588,7.07073 -1.998,6.72396 C 850.88222,297.12119 800.34818,270.85504 755.14894,247.33606 652.92038,190.54354 557.35294,112.35497 438.47906,94.147103 314.07655,72.851007 180.10384,129.79416 111.45131,236.21851 c -68.469596,100.1223 -72.230432,243.37816 1.42916,341.81168 21.37924,32.25524 55.37784,53.1626 78.22129,83.92288 16.64672,32.67932 13.1325,71.54812 27.29178,105.32116 36.27296,109.00136 146.57125,182.72768 259.54616,187.59268 98.49764,6.68856 197.68428,-36.1172 261.85036,-110.86716 42.8416,-45.51748 78.03844,-104.92996 139.46976,-127.22708 8.64792,-5.40868 25.0082,1.76324 6.3262,0.88676 -58.30156,-12.56604 -91.60476,-76.26928 -91.74632,-132.31584 -1.8436,-61.76612 40.14104,-131.38736 106.08484,-136.62684 18.16428,-1.85356 48.85428,10.45744 40.53888,32.88504 -18.34192,16.40452 -42.22016,-9.88724 -44.95104,-28.53024 -5.5628,-17.34704 1.51704,-44.71636 14.92312,-52.18456 -39.00668,14.20672 -81.14032,-6.83256 -113.3322,-28.5186 C 729.62802,325.99017 695.0927,249.46377 647.21226,185.91895 614.40618,141.00669 557.78654,116.3668 502.59166,122.77262 c -60.48184,4.28743 -112.52288,39.43565 -157.24943,77.79652 -37.0032,28.75618 -87.30083,23.19713 -128.89191,41.38451 -114.1438,40.44198 -190.35055,158.80386 -190.486918,278.43046 -3.853268,129.4296 80.129248,258.26448 204.107618,299.63564 52.57474,19.78948 109.27237,15.99064 164.2646,15.62716 51.58804,3.9976 100.39408,27.4432 152.91904,24.13244 84.37576,-1.95468 162.366,-40.50032 234.64808,-80.69832 18.45612,-8.37116 28.5678,-28.69732 21.44112,-48.152 -17.24532,-62.02084 -13.66088,-134.698 30.14276,-185.26228 28.7286,-35.24804 84.63152,-60.6068 125.88332,-31.56592 23.32244,15.56004 17.63208,54.3468 -9.5114,61.97972 -47.22284,16.45556 -93.13964,-31.77028 -91.15664,-77.83464 -1.57956,-21.35772 9.39472,-40.28572 17.83448,-58.72228 -14.63716,-13.6858 -35.49536,-22.4388 -47.81872,-39.7698 -50.44188,-59.68694 -50.69384,-146.48028 -23.66516,-216.52301 7.47264,-18.55259 14.0344,-44.4169 -6.75624,-57.10484 C 745.91346,91.866847 685.95914,70.381723 626.13894,52.920047 509.35018,19.806503 374.73114,31.072563 276.13586,106.42543 194.24585,166.31461 145.29928,270.06331 158.25642,371.53859 c 3.73134,29.53644 10.1606,62.63128 -9.34955,88.45352 -38.13856,54.82944 -63.237124,120.6036 -59.02062,188.20664 4.685504,130.59016 102.68159,247.77432 226.89102,283.9478 98.85995,31.60652 206.48003,10.35068 297.42827,-35.08864 51.92644,-26.73992 107.0912,-51.63068 148.2272,-94.1856 36.86324,-44.39176 41.23604,-107.0884 80.7714,-150.07548 23.93004,-28.37524 64.73016,-55.84708 102.44836,-38.49964 20.5328,9.96816 12.16636,39.78444 -8.08004,44.26964 -50.31932,15.89808 -99.83624,-26.913 -115.42228,-72.6046 -20.87392,-54.06352 0.73872,-129.25432 60.04068,-147.41952 15.74676,-0.86124 14.93948,-1.24588 3.35276,-10.89288 -30.07732,-37.26716 -20.64592,-104.23106 23.91808,-125.78537 13.61452,-5.30141 7.78616,9.46819 -1.88712,9.36827 C 856.05282,323.18697 804.93514,297.7851 760.3417,274.52471 662.67922,218.18183 569.49242,149.40323 459.69694,118.1621 348.33095,85.760299 220.77095,117.83685 140.22764,201.95787 47.226802,293.95794 19.036086,447.25723 82.149066,563.41035 107.5506,613.93371 151.653,650.95503 197.46911,682.33099 c 33.91539,25.36272 31.85114,72.62912 51.31913,107.04536 46.71863,103.62848 163.51054,165.03692 275.25102,156.0142 83.88124,-4.27512 160.762,-48.59672 217.10688,-109.17624 41.40168,-40.34776 79.24068,-91.2602 136.94968,-108.36668 8.9134,-1.26744 -16.52616,-9.98044 -14.3384,-6.60156 -84.77828,-45.37244 -95.07528,-177.3726 -24.49712,-240.12224 26.5736,-25.5144 76.81804,-42.38436 105.31764,-11.24988 13.0286,14.41188 -3.48472,36.67768 -21.1132,28.746 -35.038,-11.9374 -39.926,-64.11468 -18.10996,-87.2322 C 856.43174,421.48499 809.6383,390.48199 775.94842,357.97257 720.74042,305.30207 697.4491,230.86295 658.46238,167.31402 629.3465,118.68917 571.20314,94.867375 516.01822,98.572139 436.96162,101.12773 364.75371,146.65486 317.71155,208.57054 299.73983,234.33076 270.60214,247.51605 241.01702,254.84635 149.58143,280.06613 73.864006,352.89921 45.19179,443.32411 33.023346,479.88523 27.786766,518.70171 29.579634,557.18283"
  />
</svg>