<?xml version="1.0" encoding="UTF-8" standalone="no"?>
<!-- Created with Inkscape (http://www.inkscape.org/) -->

<svg
   width="72"
   height="56"
   viewBox="0 0 72 56"
   version="1.1"
   id="svg1"
   xmlns="http://www.w3.org/2000/svg"
   xmlns:svg="http://www.w3.org/2000/svg">
  <defs
     id="defs1" />
  <g
     id="layer3">
    <path
       style="display:inline;fill:#e8e8e8;fill-opacity:1;stroke:none;stroke-width:0.186554;stroke-dasharray:none;stroke-opacity:1"
       d="M 17.712339,0.7519416 V 32.726823 c 0,3.898941 -0.194946,7.101642 -0.584839,9.608108 -0.334192,2.506466 -1.197535,4.706584 -2.590011,6.600354 -1.670979,2.339364 -3.843247,3.954642 -6.5168026,4.84583 C 5.3471246,54.728003 2.6735621,55.229291 0,55.284992 v -6.266156 c 3.2862521,-0.05569 5.8205621,-1.086134 7.6029367,-3.091305 1.002589,-1.113984 1.6431291,-2.478616 1.9216268,-4.093895 0.334192,-1.615272 0.5012885,-3.314102 0.5012885,-5.096477 V 0.7519416 Z M 53.387594,0 c 3.063455,0 5.82057,0.22279665 8.271335,0.66839034 2.50646,0.44559366 4.817978,1.22537936 6.934538,2.33937016 L 66.755405,9.023269 C 64.694534,8.0763808 62.661512,7.3801398 60.65634,6.9345461 58.706876,6.4889587 56.590301,6.2661619 54.306632,6.2661619 c -2.450766,0 -4.790129,0.3620426 -7.018098,1.086134 -2.227962,0.7240849 -4.205289,1.9216203 -5.931963,3.5925931 -1.670973,1.615279 -3.007761,3.759696 -4.010337,6.433258 -1.002589,2.617862 -1.503883,5.876263 -1.503883,9.775211 0,6.7396 1.531734,11.863927 4.595189,15.37297 3.063455,3.509055 7.380139,5.263579 12.950054,5.263579 2.116567,0 3.926798,-0.111402 5.43067,-0.334198 1.559585,-0.222797 3.063455,-0.61269 4.511645,-1.169686 V 31.664989 h -9.942315 v -6.015514 h 17.127507 v 25.398833 c -2.227969,0.891188 -4.706591,1.643123 -7.43584,2.255813 -2.729263,0.556995 -5.959815,0.835493 -9.691667,0.835493 -3.620444,0 -7.018091,-0.584846 -10.192948,-1.754524 -3.119149,-1.169686 -5.848412,-2.896359 -8.187776,-5.180029 -2.339376,-2.283663 -4.177445,-5.096477 -5.51422,-8.438423 -1.336787,-3.341953 -2.005171,-7.21305 -2.005171,-11.61328 0,-4.400236 0.640533,-8.299184 1.92162,-11.696831 1.336774,-3.397653 3.147006,-6.2383116 5.430675,-8.5219809 2.283657,-2.283663 5.01292,-4.0103369 8.187776,-5.180022 C 46.202407,0.58483908 49.655748,0 53.387594,0 Z"
       id="text1-2"
       aria-label="JG" />
  </g>
</svg>
