<?xml version="1.0" encoding="UTF-8" standalone="no"?>
<svg
   role="img"
   viewBox="0 0 575.99146 186.68752"
   version="1.1"
   id="svg1"
   sodipodi:docname="threadless.svg"
   inkscape:export-filename="GIT/assets/threadless.svg"
   inkscape:export-xdpi="96"
   inkscape:export-ydpi="96"
   width="575.99146"
   height="186.68752"
   xmlns:inkscape="http://www.inkscape.org/namespaces/inkscape"
   xmlns:sodipodi="http://sodipodi.sourceforge.net/DTD/sodipodi-0.dtd"
   xmlns="http://www.w3.org/2000/svg"
   xmlns:svg="http://www.w3.org/2000/svg"
   xmlns:rdf="http://www.w3.org/1999/02/22-rdf-syntax-ns#"
   xmlns:cc="http://creativecommons.org/ns#"
   xmlns:dc="http://purl.org/dc/elements/1.1/">
  <defs
     id="defs1" />
  <sodipodi:namedview
     id="namedview1"
     pagecolor="#ffffff"
     bordercolor="#000000"
     borderopacity="0.25"
     inkscape:showpageshadow="2"
     inkscape:pageopacity="0.0"
     inkscape:pagecheckerboard="0"
     inkscape:deskcolor="#d1d1d1" />
  <title
     id="title1">Threadless</title>
  <path
     d="m 17.87034,-182.37852 c -0.08,-0.188 -0.177,-0.734 -0.019,-1.047 0.19,0.243 0.403,0.552 0.019,1.047 z m -1.49,-3.192 c -0.231,0.826 -0.262,2.255 -0.027,2.852 0.643,-1.25 0.111,-2.625 0.027,-2.852 z m -1.63,2.403 c 0.05,-1.249 0.05,-2.138 -0.22,-2.64 -0.228,0.678 -0.114,1.388 0.22,2.64 z m 0.491,1.2 c 0.422,0.553 0.654,0.257 0.716,-0.002 -0.538,-2.057 -0.18,-3.149 0.187,-4.397 0,0 -0.002,0 -0.003,-0.002 -0.02,-0.014 -1.055,0.404 -1.164,0.448 0.833,1.335 -0.164,2.85 0.264,3.953 z m 5.03,-0.183 c 0.741,-0.561 0.678,-1.729 0.776,-2.34 a 0.024,0.024 0 0 1 -0.003,0 c 0,0 -1.154,0.444 -1.291,0.498 0.594,0.314 0.79,0.956 0.518,1.842 z m -6.58,-0.155 c 0.232,0.529 0.65,0.312 0.824,0.09 -0.231,-0.469 -0.292,-0.668 -0.41,-1.041 -0.383,0.058 -0.674,0.363 -0.415,0.95 z m 4.882,0.362 c 0.534,-0.533 0.817,-1.614 0.836,-2.18 a 0.031,0.031 0 0 0 -0.003,-10e-4 c 0,0 -1.085,0.416 -1.19,0.458 0.446,0.468 0.35,1.017 -0.048,1.697 0.117,0.14 0.3,0.092 0.405,0.027 z m 2.817,-1.715 c 0.05,0.496 -0.082,0.952 -0.225,1.179 0.459,0.053 0.754,-0.709 0.225,-1.179 z m -1.713,0.365 c 0.004,0.366 -0.22,0.875 -0.22,0.875 0.462,0.31 0.673,-0.27 0.22,-0.875 z m -2.103,1.275 c -0.392,-0.722 -0.262,-1.492 0.089,-2.044 l -0.002,-0.001 -0.492,0.184 a 4.115,4.115 0 0 1 -0.52,1.768 c 0.094,0.282 0.796,0.418 0.925,0.094 z m 3.316,0.047 c -0.544,0.517 -1.093,0.546 -1.66,0.074 -0.298,0.423 -0.688,0.603 -1.37,0.359 -0.395,0.311 -1.159,0.318 -1.574,-0.063 -0.419,0.636 -1.078,0.551 -1.497,-0.096 -0.271,0.516 -0.776,0.535 -1.184,0.171 -0.37,0.452 -0.875,0.496 -1.171,0.044 -0.129,0.437 -0.691,0.699 -1.334,0.348 -0.2,0.36 -0.831,0.684 -1.5400004,0.388 -0.928,0.883 -1.681,0.729 -1.666,-1.276 l -0.38,-0.097 c 0,0 0.046,1.276 0.032,1.422 -0.016,0.455 -0.38,0.538 -0.498,0.573 -0.344,0.101 -0.656,-0.178 -0.7,-0.419 -0.16,-0.899 -0.332,-1.924 -0.38,-1.94 -0.234,-0.076 -0.45,2.15 -1.068,2.647 -0.672,0.54 -1.12,0.125 -1.595,-0.178 l -0.409,0.433 c -0.169,-0.917 -0.29,-1.79 -0.059,-2.628 -0.3,0.077 -0.737,-0.055 -0.8,-0.267 0.214,-0.295 0.566,-0.288 0.759,-0.258 0.11,-0.359 0.138,-0.795 0.042,-1.255 0.617,0.017 0.66,0.48 0.662,0.608 a 1.614,1.614 0 0 1 -0.093,0.559 0.683,0.683 0 0 1 0.644,0.011 0.41,0.41 0 0 1 0.216,0.33 1.665,1.665 0 0 1 -0.83,0.159 c -0.457,1.142 0.27,1.924 0.908,2.104 0.321,-2.082 0.139,-4.514 0.652,-5.645 -0.001,0 -0.002,0 -0.003,-0.002 l -2.04,0.804 a 4.19,4.19 0 0 0 -0.294,1.127 c -0.055,0.024 -1.87399995,0.707 -1.86599995,0.75 0.07,0.363 0.075,0.723 0,1.08 l -0.008,0.004 c -0.25,0.1 -0.541,0.177 -0.742,0.367 -0.164,0.155 0.22,0.293 0.328,0.324 a 0.984,0.984 0 0 0 0.286,0.026 0.716,0.716 0 0 0 0.135,-0.02 q -0.025,0.093 -0.045,0.187 a 3.814,3.814 0 0 0 -0.082,0.759 c -0.014,0.565 0.085,1.13 0.186,1.682 l 0.56699995,-0.223 0.104,-0.038 c 0.145,0.093 0.295,0.178 0.461,0.233 0.358,0.116 0.739,-0.097 1.062,-0.222 0.451,-0.175 0.903,-0.351 1.35,-0.536 a 0.622,0.622 0 0 0 0.238,0.214 c 0.346,0.184 0.963,-0.186 1.248,-0.297 l 0.222,-0.087 a 0.709,0.709 0 0 0 0.24,0.244 0.53,0.53 0 0 0 0.337,0.052 1.002,1.002 0 0 0 0.189,-0.051 c 0.327,-0.109 0.647,-0.244 0.967,-0.372 0.51,0.073 0.957,-0.144 1.465,-0.342 l 0.05,-0.02 c 0.23,0.055 0.446,0.033 0.6630004,-0.027 0.191,-0.053 0.384,-0.135 0.59,-0.218 0.284,0.244 1.006,-0.111 1.104,-0.15 0.366,0.273 1.084,-0.043 1.176,-0.097 0.247,0.274 0.568,0.426 0.953,0.292 0.209,-0.073 0.416,-0.15 0.623,-0.229 0.304,0.158 0.663,0.179 1,0.091 a 4.515,4.515 0 0 0 0.45,-0.144 c 0.178,0.052 0.354,0.085 0.542,0.076 0.318,-0.015 0.654,-0.198 0.946,-0.318 0.382,0.303 1.186,0.068 1.634,-0.133 a 2.434,2.434 0 0 0 1.401,0.146 c 0.137,-0.026 1.687,-0.606 2.413,-0.91 -0.599,0.22 -1.31,0.221 -1.958,-0.13 z m -15.7170004,-2.894 -0.211,3.028 c 0.318,-0.498 0.468,-2.332 0.211,-3.028 z m 7.7250004,3.156 c 0.036,0.131 0.377,0.098 0.418,-0.105 -0.386,-0.557 -0.667,-1.827 0.664,-1.997 -0.207,-1.118 -0.047,-1.95 0.438,-2.735 a 0.015,0.015 0 0 1 -0.002,-0.002 c -0.016,-0.014 -2.016,0.763 -2.04,0.803 a 3.54,3.54 0 0 0 -0.51,1.639 c 0.507,-0.028 0.73,1.298 1.032,2.397 z m -6.0950004,0.993 c 0,0 0.182,0.278 0.33,0.095 0.155,-0.193 -0.116,-1.998 -0.12,-2.025 h -0.004 c -0.088,0.009 -0.226,0.083 -0.301,0.111 l -0.06,0.023 a 1.889,1.889 0 0 1 0.128,0.509 c 0.058,0.466 0.027,1.287 0.027,1.287 z m 1.272,-2.047 c 0.403,0.5 0.542,1.04 0.346,1.724 0.253,0.356 0.447,0.314 0.741,0.023 -0.595,-0.405 -0.555,-1.904 0.442,-2.462 a 0.425,0.425 0 0 0 -0.038,0.011 c -0.241,0.085 -1.587,0.555 -1.976,0.782 -0.008,0.003 -0.053,0.031 -0.077,0.046 a 1.965,1.965 0 0 1 0.352,0.081 z m 3.4630004,1.188 c 0.137,0.08 0.551,0.031 0.652,-0.414 -0.21,-0.686 -0.257,-0.943 -0.354,-1.385 -0.455,0.085 -0.697,1.565 -0.298,1.8 z m -1.5640004,0.361 c 0.1760004,0.105 0.7740004,0.153 0.8470004,-0.23 -0.205,-1.618 0.497,-2.497 0.941,-2.642 l -0.033,0.01 -0.107,0.038 -1.8400004,0.642 c 0.7650004,0.448 0.8000004,1.629 0.192,2.182 z m -0.402,-0.287 c 0.5970004,-0.633 0.351,-1.314 0.076,-1.35 -0.484,0.432 -0.396,1.128 -0.076,1.35 z m 13.0720004,-2.192 a 0.077,0.077 0 0 0 0.035,-0.01 0.03,0.03 0 0 0 0.01,-0.03 c 0,-0.014 -0.005,-0.023 -0.014,-0.026 a 0.066,0.066 0 0 0 -0.038,-0.004 l -0.056,0.006 0.007,0.07 z m 1.352,-0.601 c 0,-0.003 -0.003,-0.005 -0.004,-0.008 l -1.105,0.42 a 0.33,0.33 0 1 1 -0.355,-0.093 l -0.556,0.211 a 1.473,1.473 0 0 1 0.088,0.194 c 0.139,0.381 0.13,0.845 -0.086,1.347 1.464,-0.068 2.103,-1.138 2.018,-2.072 z m -1.384,0.358 a 0.275,0.275 0 1 1 -0.246,0.302 0.276,0.276 0 0 1 0.246,-0.303 z m -0.092,0.13 0.032,0.307 0.055,-0.005 -0.013,-0.129 0.027,-0.004 a 0.02,0.02 0 0 1 0.015,0.005 0.07,0.07 0 0 1 0.014,0.017 l 0.076,0.098 0.064,-0.007 -0.096,-0.123 a 0.02,0.02 0 0 0 0,-0.003 0.078,0.078 0 0 0 0.02,-0.011 0.081,0.081 0 0 0 0.03,-0.079 0.083,0.083 0 0 0 -0.045,-0.07 0.13,0.13 0 0 0 -0.067,-0.008 z"
     id="path1"
     inkscape:export-filename="GIT/assets/threadless.svg"
     inkscape:export-xdpi="96"
     inkscape:export-ydpi="96" />
  <metadata
     id="metadata1">
    <rdf:RDF>
      <cc:Work
         rdf:about="">
        <dc:title>Threadless</dc:title>
      </cc:Work>
    </rdf:RDF>
  </metadata>
</svg>
