<?xml version="1.0" encoding="UTF-8"?>
<svg id="Layer_1_copy" xmlns="http://www.w3.org/2000/svg" version="1.1" viewBox="0 0 24 28">
  <!-- Generator: Adobe Illustrator 29.4.0, SVG Export Plug-In . SVG Version: 2.1.0 Build 152)  -->
  <defs>
    <style>
      .st0 {
        fill: none;
        stroke: #231f20;
        stroke-linecap: round;
        stroke-linejoin: round;
        stroke-width: 1.3px;
      }
    </style>
  </defs>
  <path class="st0" d="M10.92,11.85c-.13.11-.36.11-.52.12-1.93.15-4.31-.23-6.18,0-1.29.16-2.01,1.38-1.85,2.51.08.5.43.76.6,1.2-1.36.78-1.32,2.95.29,3.45-.06.32-.32.51-.43.84-.32.94.06,2.12,1.13,2.46-1.04,1.43-.47,3.32,1.54,3.49,4.05-.23,8.47.29,12.48,0,1.29-.1,2.65-.65,3.95-.78l.08-10.54-.13-.12c-1.81.33-2.48-2.06-3.23-3.2-1.66-2.55-4.31-4.34-5.16-7.37-.18-.66.03-1.37-.81-1.74-.96-.42-1.96.04-2.45.84-.9,1.46-.75,3.48-.13,5.02.46,1.13,1.38,1.77,1.13,3.14-.02.12-.22.62-.3.69h.02Z"/>
</svg>