<?xml version="1.0" encoding="UTF-8"?>
<svg xmlns="http://www.w3.org/2000/svg" width="24" height="24" viewbox="0 0 29 28">
<g><path style="fill: #cecece" d="M9.27,11.13c-.13.12-.37.12-.54.13-2.01.17-4.48-.26-6.42,0-1.34.18-2.09,1.56-1.92,2.83.08.56.45.86.62,1.35-1.41.88-1.37,3.33.3,3.9-.06.36-.33.58-.45.95-.33,1.06.06,2.39,1.17,2.78-1.08,1.62-.49,3.75,1.6,3.94,4.21-.26,8.8.33,12.97,0,1.34-.11,2.75-.73,4.1-.88l.08-11.91-.14-.14c-1.88.37-2.58-2.33-3.36-3.62-1.72-2.88-4.48-4.9-5.36-8.32-.19-.75.03-1.55-.84-1.96-1-.47-2.04.05-2.55.95-.94,1.65-.78,3.93-.14,5.67.48,1.28,1.43,2,1.17,3.55-.02.14-.23.7-.31.78Z"/><path style="fill: #cecece" d="M28.29,12.53c-1.75.11-3.87-.23-5.57-.03-.76.09-1.03.59-1.09,1.29-.36,4.09.28,8.71,0,12.86.07.83.35,1.22,1.19,1.3,1.7.16,3.66-.12,5.39,0,.43-.07.68-.45.84-.82l.05-13.43c-.06-.55-.28-.94-.8-1.17Z"/></g>
</svg>